<?xml version="1.0" standalone="no"?>
<!DOCTYPE svg PUBLIC "-//W3C//DTD SVG 20010904//EN"
 "http://www.w3.org/TR/2001/REC-SVG-20010904/DTD/svg10.dtd">
<svg version="1.0" xmlns="http://www.w3.org/2000/svg"
 width="937.000000pt" height="937.000000pt" viewBox="0 0 937.000000 937.000000"
 preserveAspectRatio="xMidYMid meet">
<metadata>
Created by potrace 1.14, written by Peter Selinger 2001-2017
</metadata>
<g transform="translate(0.000000,937.000000) scale(0.100000,-0.100000)"
fill="#000000" stroke="none">
<path d="M8 9330 c-2 -23 1 -40 7 -40 5 0 4 -4 -3 -9 -8 -5 -11 -17 -7 -32 3
-13 8 -62 10 -109 3 -47 6 -111 8 -142 4 -55 -6 -78 -16 -40 -6 19 -1 -68 9
-164 3 -40 2 -64 -5 -69 -12 -7 -15 -115 -3 -115 10 0 36 42 38 63 5 57 21 8
19 -58 -2 -54 -27 -105 -51 -105 -34 0 -9 -27 44 -48 72 -29 108 -74 97 -124
-7 -29 -6 -31 9 -19 22 19 21 82 -3 113 -13 15 -21 44 -23 74 -1 27 -7 55 -12
63 -7 9 -5 17 7 26 22 16 21 28 -3 50 -12 11 -18 25 -15 34 4 9 -3 23 -17 34
-13 10 -17 16 -10 12 6 -3 12 -3 13 2 0 4 3 25 5 47 3 21 0 53 -6 72 -8 23 -8
44 -1 71 8 27 7 39 -1 45 -7 4 -9 10 -6 14 4 4 -1 18 -12 31 -19 24 -19 25 0
59 20 34 15 45 -8 22 -7 -7 -6 2 3 20 9 17 22 32 28 32 8 0 8 3 2 8 -13 9 -35
49 -35 63 0 6 7 9 15 6 21 -9 28 9 13 33 -11 18 -10 23 4 31 12 7 16 20 14 47
-3 29 -8 38 -26 40 -12 2 -20 0 -17 -5 9 -14 -9 -37 -22 -29 -6 4 -11 14 -11
22 0 8 -6 14 -14 14 -9 0 -15 -14 -18 -40z"/>
<path d="M166 9308 c-9 -86 3 -123 37 -123 53 -1 58 -39 10 -71 -26 -16 -26
-16 -21 10 4 20 2 24 -7 16 -18 -15 -24 -68 -10 -87 13 -17 35 -10 35 12 0 16
25 26 45 19 24 -10 18 -30 -21 -66 -20 -18 -39 -42 -44 -53 -8 -22 6 -73 27
-93 7 -7 13 -29 13 -47 0 -40 18 -85 34 -85 6 0 17 9 24 20 7 11 18 20 25 20
6 0 25 7 40 15 16 8 40 12 56 9 16 -3 32 -1 35 5 10 15 -35 139 -52 146 -9 3
-18 1 -21 -4 -9 -14 -73 -17 -96 -4 -16 9 -17 14 -6 27 13 15 75 17 100 2 6
-4 11 -2 11 5 0 7 9 23 21 35 23 25 55 22 64 -7 8 -25 29 -24 47 2 12 20 17
20 39 9 13 -7 29 -20 35 -28 7 -9 30 -16 60 -17 65 -2 84 4 84 25 0 20 25 50
41 50 5 0 15 -11 21 -25 6 -14 16 -25 21 -25 5 0 7 11 5 25 -3 14 -1 25 3 25
5 0 9 7 9 16 0 11 5 14 16 10 9 -3 24 -6 35 -6 10 0 19 -5 19 -11 0 -6 -9 -8
-22 -4 -16 4 -19 3 -10 -3 9 -6 11 -18 6 -35 -4 -18 -2 -27 6 -27 6 0 9 -4 6
-9 -3 -5 2 -12 11 -15 16 -7 53 23 53 44 0 5 4 10 10 10 5 0 7 -6 4 -13 -8
-21 31 -48 77 -54 37 -5 42 -4 36 11 -4 10 -7 22 -7 28 0 6 -12 8 -29 5 -30
-6 -58 13 -47 31 8 13 129 10 138 -3 4 -5 34 -10 68 -10 41 0 60 -4 60 -12 0
-17 -92 -17 -108 -1 -20 20 -37 -5 -22 -32 10 -18 9 -24 -7 -36 -10 -7 -21
-14 -25 -14 -17 -1 7 -37 38 -58 18 -12 34 -29 34 -37 0 -8 4 -15 10 -15 5 0
7 -7 4 -15 -8 -19 -5 -19 50 5 25 10 46 15 46 10 0 -6 -7 -10 -15 -10 -8 0
-15 -4 -15 -8 0 -4 -20 -21 -45 -36 -25 -16 -50 -35 -56 -42 -17 -21 -50 -17
-56 6 -3 11 -11 20 -17 20 -6 0 -18 10 -26 22 -28 40 -51 59 -80 65 -32 6 -36
13 -20 29 8 8 6 15 -5 24 -13 11 -20 11 -43 0 -15 -8 -36 -15 -46 -16 -25 -2
-51 -35 -35 -45 21 -13 2 -37 -24 -32 -21 4 -25 1 -29 -26 -6 -40 2 -91 13
-91 5 0 9 6 9 13 0 23 31 77 44 77 7 0 17 -12 23 -27 l10 -28 10 25 c18 44 37
53 78 40 37 -12 49 -45 19 -57 -8 -3 -20 -16 -25 -29 -4 -13 -14 -24 -21 -24
-17 -1 -53 -50 -36 -50 9 0 9 -3 0 -12 -7 -7 -12 -24 -12 -39 0 -30 -23 -54
-41 -43 -7 4 -3 -8 9 -28 25 -41 28 -58 8 -58 -16 0 -39 33 -51 70 -13 42 -24
51 -46 37 -10 -6 -19 -19 -19 -29 0 -9 -10 -24 -22 -32 -25 -17 -53 -22 -43
-7 3 5 1 13 -5 16 -7 4 -1 16 15 32 22 23 32 43 21 43 -15 0 -85 -38 -79 -43
3 -4 -1 -7 -9 -7 -9 0 -15 8 -14 17 2 26 -31 27 -57 1 -31 -30 -45 -113 -20
-122 17 -7 10 -21 -10 -21 -7 0 -13 -9 -15 -20 -7 -41 -12 -49 -24 -37 -16 16
-43 15 -58 -3 -16 -20 -46 -4 -54 30 -4 14 -13 25 -20 25 -17 0 -28 -40 -15
-56 15 -18 0 -61 -23 -67 -28 -8 -21 -51 10 -55 20 -3 21 -6 10 -19 -11 -14
-10 -15 10 -9 24 8 31 -11 11 -31 -9 -9 -7 -19 7 -40 10 -15 17 -34 16 -40 -4
-16 0 -16 31 0 l26 13 -30 35 c-16 19 -29 37 -29 40 0 21 38 14 98 -16 37 -19
70 -35 74 -35 4 0 12 9 18 19 8 17 6 22 -17 33 -22 10 -29 21 -31 51 -3 30 -8
38 -28 42 -13 3 -35 7 -49 10 -14 3 -25 11 -25 19 0 15 42 26 99 26 27 0 47 8
71 30 29 26 40 30 84 28 28 -1 62 -8 76 -15 21 -11 27 -10 42 7 30 32 85 19
71 -16 -7 -19 47 8 72 36 24 26 32 25 39 -5 4 -14 11 -25 17 -25 5 0 3 -10 -5
-22 -20 -28 -20 -46 -1 -50 13 -3 12 -9 -5 -44 -21 -41 -55 -63 -63 -40 -7 17
-54 -31 -87 -91 -30 -52 -39 -90 -20 -78 6 4 8 11 4 16 -3 6 2 17 12 24 31 23
37 17 15 -14 -12 -16 -21 -35 -22 -43 0 -7 -13 -35 -29 -63 -57 -97 -70 -125
-72 -150 -2 -15 -8 -31 -15 -37 -7 -6 -13 -15 -13 -20 0 -10 -34 -61 -64 -95
-11 -13 -14 -23 -8 -23 7 0 12 -10 12 -21 0 -16 5 -20 18 -17 13 4 18 -1 20
-17 2 -25 -22 -52 -32 -36 -4 5 -2 12 4 16 19 12 10 22 -15 17 -19 -3 -25 0
-25 13 0 17 -1 17 -19 1 -21 -19 -33 -53 -21 -61 9 -5 24 24 21 40 -1 6 3 5
10 -2 6 -6 9 -18 5 -25 -17 -33 -34 -59 -51 -78 -10 -11 -15 -23 -11 -27 4 -4
10 -3 14 3 4 6 17 16 29 22 21 12 21 11 11 -21 -5 -17 -11 -41 -12 -52 -2 -11
-6 -29 -11 -39 -5 -12 -5 -21 2 -23 11 -4 5 -53 -7 -53 -4 0 -10 -14 -14 -31
-4 -22 -11 -30 -23 -27 -20 4 -34 48 -20 66 6 8 6 12 -1 12 -15 0 -53 -50 -46
-61 3 -5 14 -9 25 -9 22 0 25 -26 5 -53 -7 -9 -11 -28 -9 -41 4 -19 0 -24 -26
-29 -17 -4 -31 -12 -31 -18 0 -7 -18 -28 -41 -47 -36 -31 -39 -36 -23 -45 14
-8 21 -5 36 14 10 13 27 35 38 49 11 14 20 28 20 32 0 8 41 -2 58 -15 15 -11
16 -51 2 -77 -12 -22 -3 -50 16 -50 9 0 14 -11 14 -28 0 -15 4 -32 10 -38 12
-12 -28 -98 -55 -118 -13 -9 -16 -19 -10 -32 4 -10 9 -26 9 -34 1 -8 12 -16
24 -18 20 -3 23 -8 17 -30 -9 -36 -25 -54 -43 -47 -8 3 -26 -5 -39 -17 l-24
-23 -18 24 c-10 13 -23 21 -29 17 -6 -3 -13 -2 -16 3 -3 5 -31 12 -62 16 -74
9 -84 13 -84 35 0 11 -5 22 -11 26 -7 4 -9 0 -5 -13 5 -17 2 -20 -24 -20 -18
0 -30 6 -30 14 0 18 -13 16 -43 -7 -14 -11 -32 -20 -41 -20 -22 0 -21 -2 18
-43 40 -43 50 -83 30 -115 -19 -28 -57 -26 -62 3 -9 48 -23 38 -21 -15 2 -30
-1 -78 -4 -107 -8 -54 2 -73 23 -48 18 21 40 19 40 -5 0 -24 3 -24 40 -5 17 9
33 16 37 18 4 1 6 12 5 25 -5 32 17 27 29 -8 13 -36 29 -30 29 10 0 21 8 33
35 49 19 11 35 24 35 28 -1 22 -49 58 -117 89 -39 17 -41 27 -11 48 41 29 68
20 127 -43 50 -53 61 -60 106 -66 81 -11 89 -14 119 -57 32 -45 33 -43 -33
-80 -42 -23 -39 -38 4 -31 36 6 44 -4 23 -25 -12 -12 -4 -17 36 -24 14 -2 23
-17 32 -53 8 -31 10 -51 4 -53 -19 -7 -10 -22 13 -22 21 0 20 -1 -8 -25 -16
-13 -24 -24 -17 -25 6 0 12 5 12 10 0 6 9 10 20 10 31 0 24 -25 -17 -64 -36
-34 -41 -64 -7 -35 13 11 18 11 21 2 3 -7 12 -13 20 -13 11 0 14 -7 9 -24 -4
-16 -1 -26 8 -29 8 -3 12 -15 9 -31 -4 -21 1 -29 26 -43 17 -10 31 -25 31 -35
0 -9 6 -19 13 -21 8 -4 9 -8 1 -14 -6 -4 -13 -16 -17 -26 -8 -22 -39 -35 -45
-19 -2 7 -14 12 -26 12 -17 0 -29 12 -47 45 -18 34 -29 45 -44 43 -15 -2 -20
-11 -20 -33 0 -24 5 -31 24 -33 13 -2 26 -12 29 -24 4 -15 11 -19 33 -16 15 3
26 1 23 -3 -2 -4 2 -9 8 -12 18 -6 -40 -67 -64 -67 -10 0 -18 4 -18 9 0 5 -19
29 -42 53 -41 43 -41 43 -48 18 -4 -14 -4 -45 -2 -69 l4 -43 37 5 c89 15 107
20 137 45 18 15 33 33 33 40 1 6 5 12 10 12 5 0 16 3 24 6 9 3 16 -3 20 -17 4
-16 11 -20 27 -16 29 7 35 -14 16 -52 -20 -38 -20 -38 5 -52 21 -11 22 -10 16
25 -4 28 -2 39 9 43 21 8 29 -4 14 -22 -8 -10 -9 -15 -1 -15 6 0 11 -9 11 -20
0 -11 5 -20 10 -20 6 0 10 -6 10 -13 0 -7 9 -18 21 -25 11 -7 18 -19 15 -27
-3 -8 0 -17 5 -21 6 -3 9 -14 6 -24 -3 -11 2 -21 10 -24 9 -4 12 -13 8 -25 -7
-22 31 -37 52 -19 16 13 17 12 32 -31 9 -27 9 -36 -1 -43 -7 -4 -10 -8 -5 -8
10 0 -23 -51 -43 -67 -18 -15 -34 -17 -26 -4 4 5 2 21 -4 36 -8 20 -15 25 -29
20 -11 -3 -25 0 -32 8 -8 8 -21 12 -30 10 -10 -3 -22 4 -28 16 -7 12 -21 21
-31 21 -11 0 -20 4 -20 8 0 12 -160 6 -172 -6 -13 -13 1 -73 19 -79 6 -2 16
10 21 27 10 26 42 44 42 22 0 -14 46 -31 68 -25 25 6 80 -25 88 -49 4 -13 12
-16 35 -11 22 4 29 2 29 -11 0 -9 8 -16 19 -16 11 0 22 -4 25 -9 3 -4 26 -14
50 -21 33 -9 46 -18 48 -34 2 -13 11 -22 27 -24 18 -3 22 -8 18 -28 -3 -15 0
-24 8 -24 7 0 16 -11 19 -24 3 -13 15 -26 26 -29 17 -4 19 -9 10 -32 -12 -33
-13 -48 -1 -40 5 3 12 -4 16 -15 3 -11 13 -20 21 -20 20 0 18 -19 -3 -27 -10
-3 -26 -13 -35 -21 -12 -10 -18 -11 -18 -4 0 7 -8 12 -18 12 -9 0 -23 9 -30
20 -17 28 -43 25 -99 -9 -28 -17 -68 -31 -95 -34 -33 -3 -58 -14 -87 -38 -23
-18 -41 -34 -41 -35 0 -1 15 -10 32 -19 30 -15 34 -15 45 2 7 9 13 23 13 30 0
14 18 19 103 27 46 5 59 3 63 -9 4 -8 14 -15 23 -15 26 0 31 -9 20 -37 -13
-35 -4 -41 24 -15 28 26 70 33 74 12 2 -8 -19 -39 -47 -69 -28 -29 -50 -54
-48 -56 2 -2 23 1 48 5 25 5 65 6 90 4 l45 -5 -23 20 c-13 11 -21 24 -18 29 3
5 34 13 68 16 35 4 66 12 70 19 4 7 18 2 41 -16 19 -14 37 -23 41 -20 10 10
35 -17 41 -48 4 -18 13 -29 23 -29 10 0 23 -14 31 -32 13 -28 12 -32 -3 -44
-17 -12 -17 -14 4 -36 13 -14 20 -17 18 -8 -2 10 6 16 25 18 15 2 27 8 27 13
0 23 20 5 31 -28 6 -21 23 -54 35 -73 13 -19 24 -40 24 -46 0 -7 10 -32 21
-56 12 -23 29 -59 38 -78 8 -19 19 -37 22 -40 4 -3 15 -23 24 -45 9 -22 19
-34 22 -27 3 6 13 12 24 12 10 0 19 6 19 14 0 24 22 30 34 10 6 -10 11 -24 11
-31 0 -6 8 -19 17 -30 9 -10 20 -30 23 -45 6 -23 4 -28 -11 -28 -11 0 -35 10
-54 21 -62 38 -234 125 -260 132 -14 3 -40 19 -57 34 -28 26 -31 33 -26 70 3
25 1 43 -6 47 -7 5 -11 -5 -11 -28 0 -32 -3 -36 -25 -36 -14 0 -42 7 -63 16
-22 10 -58 16 -91 15 -50 -2 -112 13 -189 45 -18 8 -44 14 -58 14 -14 0 -69 9
-122 19 -53 11 -140 26 -192 35 -102 16 -217 35 -400 66 -63 11 -166 23 -227
26 l-113 7 0 -2236 0 -2237 3336 0 c2891 0 3335 2 3331 14 -3 8 -9 41 -13 74
-9 84 10 121 82 157 48 24 63 27 122 23 140 -10 232 -97 232 -219 l0 -49 383
1 c210 1 375 3 367 5 -9 3 -21 27 -28 58 -16 68 -89 252 -123 306 -5 8 -12 22
-16 30 -4 8 -10 17 -13 20 -19 14 -58 139 -56 175 2 21 0 46 -4 55 -5 8 -11
23 -14 33 -7 23 -30 17 -35 -9 -2 -10 -7 -22 -13 -25 -5 -3 -5 -16 1 -32 9
-23 8 -25 -7 -20 -15 6 -15 4 -4 -10 12 -14 11 -19 -6 -37 -14 -15 -27 -20
-40 -16 -17 6 -19 3 -15 -13 6 -22 39 -61 53 -61 6 0 10 -4 10 -10 0 -5 -6 -7
-14 -4 -8 3 -17 1 -20 -4 -3 -6 -15 -8 -26 -5 -11 3 -20 0 -20 -6 0 -6 11 -11
24 -11 40 0 37 -13 -9 -42 -36 -22 -46 -24 -55 -13 -9 11 -7 16 10 25 11 6 25
8 30 5 5 -3 18 -1 27 4 14 8 7 11 -32 12 -92 2 -90 1 -95 39 -3 19 0 64 6 100
6 36 13 130 14 210 3 207 7 230 36 230 13 0 19 32 17 87 -2 21 -1 21 45 -6 26
-15 59 -31 74 -34 15 -4 33 -14 42 -22 8 -8 19 -15 24 -15 5 0 17 -9 26 -19
10 -11 31 -23 47 -26 16 -4 33 -14 38 -22 5 -9 20 -17 34 -19 37 -4 111 -40
98 -48 -14 -9 -15 -36 -1 -36 6 0 10 6 10 14 0 8 14 15 35 18 38 4 48 -13 18
-31 -14 -8 -8 -10 30 -11 28 0 47 -5 47 -11 0 -7 11 -9 30 -6 23 5 28 3 23 -8
-3 -10 1 -15 13 -15 9 0 25 -7 35 -16 10 -9 36 -18 59 -21 24 -4 46 -14 54
-25 11 -15 15 -16 20 -6 5 10 7 10 12 1 3 -7 12 -13 20 -13 8 0 43 -19 77 -41
34 -23 68 -42 75 -42 6 0 12 -4 12 -9 0 -4 8 -8 17 -8 19 0 206 -90 211 -102
2 -4 10 -8 18 -8 7 0 37 -11 66 -24 29 -13 64 -26 78 -28 14 -2 24 -9 22 -16
-3 -19 16 -14 21 6 4 16 5 16 6 0 1 -11 6 -15 16 -12 10 4 15 0 15 -15 0 -14
6 -21 19 -21 11 0 22 -6 24 -12 4 -10 8 -9 17 2 11 13 11 13 7 0 -3 -9 0 -23
7 -31 12 -16 93 -45 102 -37 3 4 -4 9 -15 13 -32 10 -25 22 15 27 36 4 53 -7
37 -23 -13 -13 -4 -59 11 -59 7 0 17 5 24 12 23 23 25 -3 2 -27 -18 -20 -21
-28 -12 -37 9 -9 15 -9 24 0 14 14 32 16 24 3 -3 -5 1 -14 9 -21 12 -10 18
-10 30 0 21 17 19 1 -2 -23 -10 -11 -13 -17 -6 -14 18 11 42 -3 36 -20 -5 -13
-2 -15 15 -11 15 4 22 2 22 -8 0 -8 7 -14 15 -14 9 0 12 -6 9 -15 -4 -10 0
-15 15 -15 12 0 21 -4 21 -10 0 -5 7 -10 15 -10 11 0 14 15 13 67 0 38 -6 74
-12 82 -8 11 -8 13 2 7 7 -4 12 -2 12 8 0 8 -6 17 -12 19 -10 4 -9 8 2 16 8 5
12 13 8 16 -3 4 -15 -2 -25 -12 -16 -15 -85 -53 -98 -53 -15 0 11 29 28 32 12
2 23 11 25 21 3 16 1 17 -17 7 -14 -7 -21 -7 -21 0 0 6 11 15 25 20 34 13 32
20 -5 15 -16 -2 -32 1 -36 6 -4 6 -14 3 -25 -7 -18 -16 -19 -16 -19 12 0 17 5
35 11 41 8 8 5 13 -10 18 -12 3 -21 11 -21 16 0 5 -7 9 -15 9 -8 0 -15 -4 -15
-10 0 -5 -9 -10 -20 -10 -17 0 -18 4 -10 25 6 16 6 25 0 25 -6 0 -10 -4 -10
-10 0 -5 -9 -10 -20 -10 -12 0 -20 7 -20 16 0 10 -6 14 -15 10 -8 -3 -15 -1
-15 5 0 6 -5 7 -11 3 -8 -4 -9 1 -4 16 6 19 4 21 -14 15 -12 -3 -21 -2 -21 3
0 5 -9 12 -21 15 -13 4 -18 10 -14 17 6 9 9 9 15 0 5 -9 9 -9 14 -1 4 6 2 11
-4 11 -6 0 -9 4 -6 9 7 10 -13 9 -31 -2 -23 -15 -39 3 -36 41 2 20 0 31 -3 25
-8 -18 -35 -16 -28 1 4 11 -4 16 -28 18 -20 2 -32 8 -30 16 1 7 -9 12 -24 12
-20 0 -25 4 -20 16 5 12 0 15 -22 13 -15 -1 -44 5 -66 14 -21 9 -47 17 -57 17
-13 0 -19 7 -19 23 -1 21 -1 21 -15 3 -8 -11 -18 -16 -22 -13 -4 4 -1 13 5 19
15 15 15 28 1 28 -5 0 -8 -4 -5 -9 3 -5 0 -11 -8 -14 -8 -3 -17 1 -20 9 -4 10
-2 12 6 8 8 -5 9 -2 5 10 -4 10 -7 22 -7 27 0 5 -7 9 -15 9 -9 0 -15 -9 -15
-22 l0 -22 -16 23 c-11 15 -23 21 -35 18 -13 -3 -23 2 -30 15 -7 13 -17 18
-31 15 -14 -4 -18 -2 -14 9 3 8 1 14 -4 14 -6 0 -19 9 -29 19 -14 14 -16 22
-8 30 14 14 -7 15 -33 1 -16 -9 -19 -8 -13 7 3 10 3 15 -2 11 -4 -4 -14 -3
-22 3 -7 6 -13 8 -13 4 0 -4 -7 -2 -15 5 -12 10 -19 10 -27 2 -16 -16 -41 -15
-35 1 3 8 -14 23 -44 40 -27 14 -49 22 -49 16 0 -5 -4 -9 -9 -9 -5 0 -7 10 -3
22 4 15 2 19 -7 14 -7 -5 -20 -1 -31 9 -10 9 -26 18 -35 19 -9 1 -21 9 -26 17
-7 11 -9 11 -9 -3 0 -10 -4 -18 -10 -18 -5 0 -10 5 -10 10 0 6 -14 10 -30 10
-23 0 -33 6 -42 25 -6 14 -19 25 -29 25 -9 0 -19 5 -21 10 -2 6 -17 13 -33 15
-78 13 -95 18 -95 26 0 5 -6 9 -14 9 -8 0 -17 6 -19 13 -4 9 -7 9 -14 0 -6 -8
-14 -9 -23 -3 -8 6 -25 10 -37 10 -13 0 -23 5 -23 10 0 7 -6 7 -18 2 -20 -10
-66 10 -54 24 4 4 -1 2 -10 -5 -15 -11 -22 -9 -50 12 -39 29 -56 20 -50 -27 3
-29 2 -30 -10 -10 -7 12 -19 19 -25 17 -16 -6 -17 13 -2 22 22 14 -68 119 -94
109 -9 -3 -17 -2 -17 4 0 6 6 12 13 15 9 3 9 9 0 25 -18 30 2 37 21 7 29 -45
170 -91 200 -66 9 7 43 11 88 10 40 -2 105 -1 143 1 257 13 471 -5 705 -59 53
-12 120 -14 120 -3 0 15 123 45 180 43 69 -2 213 -47 327 -102 45 -21 84 -39
87 -39 4 0 25 -13 48 -30 22 -16 45 -30 50 -30 5 0 38 -23 73 -50 l65 -50 0
3135 0 3135 -22 1 c-22 1 -22 1 2 9 22 6 23 8 7 15 -10 4 -39 5 -65 1 -58 -7
-87 6 -58 27 18 13 16 15 -27 28 -31 9 -43 17 -37 23 6 6 10 17 10 25 0 9 -14
0 -34 -22 -27 -29 -41 -37 -69 -37 -19 0 -38 -6 -41 -12 -3 -7 -3 -1 0 13 4
19 1 28 -11 33 -11 4 -14 12 -10 25 7 22 -12 32 -40 20 -11 -4 -37 -8 -57 -8
-34 -1 -38 2 -38 24 0 22 -3 24 -30 19 -19 -4 -30 -2 -30 5 0 6 14 11 30 11
20 0 30 5 30 15 0 11 -11 15 -40 15 l-40 0 0 -45 0 -45 -40 0 c-40 0 -40 0
-40 38 0 21 -6 44 -12 51 -10 10 -10 15 -1 18 8 3 6 17 -8 49 -10 25 -19 54
-19 65 0 10 -5 19 -11 19 -8 0 -10 -12 -6 -35 7 -45 -10 -95 -32 -95 -13 0
-21 14 -30 55 -13 55 -26 70 -34 38 -3 -10 -5 2 -5 27 0 25 2 37 5 28 8 -32
25 -20 18 13 -6 25 -3 34 14 45 27 19 27 34 1 34 -11 0 -20 -6 -20 -14 0 -23
-31 -29 -37 -6 -3 11 -12 20 -20 20 -11 0 -13 12 -12 51 2 39 -1 53 -14 61
-12 6 -17 23 -17 60 0 44 2 49 15 38 19 -16 21 -14 30 28 7 36 -9 44 -31 15
-13 -17 -13 -17 -14 0 0 9 -6 27 -12 38 -10 17 -10 23 0 26 6 3 12 13 12 24 0
19 0 19 -22 -1 -23 -21 -58 -27 -58 -10 0 6 5 10 10 10 6 0 10 7 10 15 0 25
-29 17 -36 -10 -9 -37 -34 -32 -36 8 -2 51 -2 51 -26 75 -28 28 -32 28 -32 -5
0 -14 -3 -23 -7 -20 -10 10 -4 95 9 140 10 34 10 41 -5 52 -9 7 -17 20 -17 29
0 9 -7 16 -15 16 -8 0 -15 -9 -15 -19 0 -10 7 -21 15 -25 18 -7 20 -36 3 -36
-11 0 -25 21 -45 68 -3 7 2 12 11 12 24 0 21 47 -4 55 -11 3 -20 10 -20 15 0
4 -28 7 -63 6 -61 -2 -63 -1 -59 21 3 14 -3 32 -13 43 -18 19 -17 20 8 20 18
0 25 4 21 14 -3 7 -13 13 -22 12 -9 0 -17 6 -17 14 0 8 7 15 15 15 8 0 21 4
28 9 8 5 18 2 25 -8 11 -15 13 -15 23 1 8 12 8 26 2 43 l-10 25 -9 -22 c-14
-37 -31 -27 -27 15 2 27 -2 41 -17 54 -20 16 -20 17 -1 31 13 10 15 16 7 21
-6 4 -14 0 -17 -8 -7 -19 -30 -21 -38 -3 -3 6 -3 1 0 -13 5 -20 4 -23 -7 -12
-19 18 -29 15 -29 -8 0 -15 -7 -20 -25 -20 -28 0 -30 7 -13 47 15 34 27 43 45
36 17 -7 17 21 0 36 -11 8 -16 5 -25 -14 -11 -24 -42 -35 -42 -15 0 6 5 10 10
10 6 0 10 6 10 13 0 7 9 23 20 35 l21 22 -25 0 c-40 0 -69 40 -72 99 -2 33 2
51 9 51 7 0 7 4 -1 12 -18 18 -32 -6 -32 -54 0 -51 -16 -48 -26 5 -7 37 -8 39
-14 17 -6 -22 -8 -23 -15 -7 -4 10 -5 31 -1 47 4 24 1 33 -19 46 -14 9 -31 14
-39 11 -10 -4 -13 -1 -9 9 3 7 11 14 19 14 8 0 14 9 14 20 0 11 -7 20 -15 20
-8 0 -15 -7 -15 -17 0 -14 -2 -14 -20 2 -25 22 -26 35 -2 35 21 0 43 43 31 62
-7 10 -9 8 -9 -6 0 -15 -5 -17 -29 -13 -18 4 -31 2 -33 -5 -3 -9 -9 -8 -20 2
-12 12 -15 27 -11 68 l6 52 -3574 -1 c-1966 -1 -3566 -3 -3556 -6 19 -5 23
-28 7 -38 -13 -8 -3 -26 13 -24 27 3 37 -2 37 -20 0 -23 19 -32 43 -19 31 16
47 -7 42 -61 -3 -25 -5 -56 -5 -68 0 -11 -6 -20 -13 -19 -28 6 -47 19 -47 31
0 9 -18 16 -45 21 -33 5 -45 11 -45 24 0 9 -9 25 -20 35 -11 10 -20 24 -20 30
0 7 -7 18 -15 25 -21 17 -19 30 5 30 13 0 18 -5 14 -15 -7 -18 12 -20 22 -3 9
14 13 48 7 48 -3 0 -13 -5 -24 -10 -16 -9 -19 -7 -19 9 0 11 8 22 18 24 9 3
-38 5 -105 6 -111 1 -143 -6 -114 -23 25 -16 14 -126 -13 -126 -6 0 -20 6 -30
13 -14 11 -16 18 -9 33 6 10 13 35 17 55 6 35 5 37 -25 43 -17 3 -35 6 -39 6
-4 0 -11 -28 -14 -62z m759 42 c3 -5 -3 -10 -14 -10 -12 0 -21 5 -21 10 0 6 6
10 14 10 8 0 18 -4 21 -10z m5 -40 c0 -5 -4 -10 -10 -10 -5 0 -10 5 -10 10 0
6 5 10 10 10 6 0 10 -4 10 -10z m-177 -9 c15 -6 26 -20 30 -38 3 -15 9 -36 12
-45 9 -22 -22 -25 -49 -5 -16 12 -17 16 -5 36 12 19 12 23 -3 32 -10 6 -18 14
-18 19 0 12 3 12 33 1z m-303 -71 c0 -5 -7 -10 -16 -10 -8 0 -12 5 -9 10 3 6
10 10 16 10 5 0 9 -4 9 -10z m290 -65 c0 -7 -7 -15 -15 -18 -10 -5 -14 1 -12
23 1 21 5 26 15 18 6 -6 12 -16 12 -23z m-401 5 c10 0 22 -14 30 -36 11 -31
11 -38 -3 -52 -14 -14 -16 -14 -23 4 -3 10 -12 24 -18 29 -6 6 -17 23 -23 39
-11 25 -11 28 3 22 9 -3 24 -6 34 -6z m941 -26 c0 -2 -15 -4 -32 -3 -27 0 -29
2 -13 8 18 8 45 4 45 -5z m-676 -3 c3 -5 0 -14 -8 -20 -10 -9 -15 -8 -19 3 -9
22 15 37 27 17z m494 -19 c5 -15 -51 -42 -88 -42 -40 0 -35 19 11 42 37 18 71
18 77 0z m121 -1 c17 -11 7 -61 -14 -61 -20 0 -28 17 -21 46 7 26 13 29 35 15z
m-769 -15 c0 -7 -11 -16 -25 -18 -19 -4 -25 -1 -25 13 0 14 7 19 25 19 15 0
25 -6 25 -14z m45 4 c3 -5 2 -10 -4 -10 -5 0 -13 5 -16 10 -3 6 -2 10 4 10 5
0 13 -4 16 -10z m35 -6 c0 -8 -5 -12 -10 -9 -6 4 -8 11 -5 16 9 14 15 11 15
-7z m145 -15 c-4 -5 -1 -9 4 -9 6 0 11 -4 11 -9 0 -10 -41 -23 -49 -16 -8 9
19 56 29 50 6 -4 8 -11 5 -16z m7065 1 c0 -11 -4 -20 -10 -20 -5 0 -10 9 -10
20 0 11 5 20 10 20 6 0 10 -9 10 -20z m-6365 -10 c10 -16 74 -40 90 -34 8 4
15 1 15 -6 0 -6 -5 -8 -12 -4 -9 5 -9 2 1 -9 7 -9 19 -17 26 -17 7 0 15 -7 19
-15 3 -8 13 -15 23 -15 27 -1 56 -27 50 -44 -4 -10 -1 -13 7 -10 8 3 17 0 21
-6 5 -8 11 -8 21 1 11 9 15 8 20 -6 8 -19 -13 -45 -24 -30 -6 9 -42 17 -42 10
0 -2 8 -12 18 -21 19 -19 21 -20 -33 2 -17 7 -21 -11 -4 -21 6 -5 4 -11 -7
-19 -15 -12 -15 -13 0 -19 9 -4 16 -2 16 3 0 6 6 10 13 10 6 0 24 7 39 14 15
8 30 11 33 6 3 -5 -5 -12 -17 -16 -12 -3 -28 -13 -36 -20 -7 -8 -20 -14 -28
-14 -10 0 -13 -6 -9 -19 3 -10 -1 -24 -10 -31 -8 -7 -15 -22 -15 -35 0 -12 -9
-30 -20 -40 -11 -10 -20 -25 -20 -33 0 -11 9 -7 30 13 23 22 33 26 42 17 9 -9
8 -16 -4 -29 -27 -32 -29 -41 -8 -36 23 6 27 -12 4 -21 -8 -3 -13 -10 -9 -16
3 -5 1 -19 -6 -31 -8 -16 -8 -23 0 -29 9 -5 7 -11 -5 -21 -16 -12 -17 -12 -11
4 6 15 3 17 -16 12 -26 -9 -46 -25 -29 -25 8 0 9 -11 5 -32 -8 -42 -6 -40 -37
-32 -14 3 -23 11 -19 17 3 6 1 7 -5 3 -7 -4 -12 -15 -12 -25 0 -9 -16 -32 -35
-51 -19 -19 -35 -40 -35 -47 0 -7 -18 -32 -40 -55 -22 -24 -40 -46 -40 -49 0
-10 -49 -29 -54 -20 -3 4 -19 7 -36 6 -16 -1 -30 0 -30 1 0 2 25 28 56 58 30
31 53 60 49 66 -3 5 -3 19 0 31 5 15 10 17 19 9 16 -12 66 23 66 46 0 8 10 14
23 14 12 0 17 4 11 8 -12 8 -26 43 -16 40 13 -4 82 26 82 35 0 5 -7 7 -15 3
-8 -3 -15 -2 -15 3 0 5 10 12 23 15 21 7 21 8 3 15 -18 7 -17 9 8 28 34 27 33
34 -6 26 -37 -7 -71 -33 -44 -33 18 0 21 -16 5 -26 -6 -3 -14 -1 -18 5 -4 6
-15 9 -24 5 -10 -4 -17 -1 -17 6 0 7 -7 10 -16 6 -12 -4 -15 -2 -10 9 8 22 -6
18 -31 -9 -22 -23 -22 -24 -3 -29 11 -3 20 -9 20 -15 0 -19 -56 -71 -95 -87
-22 -9 -50 -25 -62 -37 -13 -12 -27 -17 -34 -12 -9 5 -4 14 17 32 30 25 27 25
-19 2 -15 -7 -26 -19 -23 -26 3 -7 -2 -15 -11 -18 -10 -4 -14 -2 -10 8 5 12 1
13 -17 6 -28 -10 -36 -5 -36 25 0 28 92 123 127 130 l28 6 -22 -19 c-23 -20
-30 -42 -15 -42 12 0 52 44 66 71 6 13 33 32 61 43 58 23 71 37 47 50 -9 5
-20 14 -24 20 -3 5 -14 -7 -24 -27 -10 -20 -24 -37 -31 -37 -7 0 -13 -4 -13
-10 0 -5 -5 -10 -11 -10 -7 0 -9 10 -5 25 6 23 4 25 -19 19 -14 -3 -25 -2 -25
2 0 10 91 94 102 94 4 0 8 9 8 20 0 21 28 28 46 11 5 -5 21 -7 36 -4 22 4 29
12 34 39 3 19 10 37 15 40 5 3 9 16 9 30 0 26 9 31 27 13 6 -6 16 -8 22 -5 19
12 12 34 -11 41 -13 4 -31 9 -40 11 -14 4 -18 -1 -18 -20 0 -26 -44 -76 -68
-76 -22 0 -102 60 -102 76 0 25 63 82 98 89 25 5 33 4 30 -7 -1 -7 2 -13 7
-13 6 0 9 6 9 12 -1 9 3 10 18 2 11 -6 22 -8 25 -5 8 8 44 -14 38 -23 -3 -5 2
-12 11 -15 25 -9 27 -7 13 11 -8 9 -9 14 -2 10 6 -4 14 -1 16 5 4 10 8 9 16
-2 12 -17 14 -10 5 14 -3 9 -12 16 -19 16 -22 0 -75 34 -75 48 0 6 -4 12 -10
12 -5 0 -10 -7 -10 -16 0 -12 -3 -14 -12 -6 -7 5 -23 12 -36 14 -21 3 -22 4
-7 26 17 24 30 28 40 12z m235 -70 c0 -5 -2 -10 -4 -10 -3 0 -8 5 -11 10 -3 6
-1 10 4 10 6 0 11 -4 11 -10z m6230 -61 c0 -11 -4 -17 -10 -14 -5 3 -10 13
-10 21 0 8 5 14 10 14 6 0 10 -9 10 -21z m-7600 -34 c0 -8 -7 -15 -16 -15 -14
0 -14 3 -4 15 7 8 14 15 16 15 2 0 4 -7 4 -15z m7694 -50 c-17 -26 -26 -30
-38 -18 -7 7 32 42 47 43 4 0 0 -11 -9 -25z m-6304 -74 c-13 -26 -27 -34 -35
-20 -4 5 1 17 11 24 27 20 36 18 24 -4z m6287 -33 c-3 -7 -5 -2 -5 12 0 14 2
19 5 13 2 -7 2 -19 0 -25z m-6227 -8 c0 -5 -4 -10 -10 -10 -5 0 -10 5 -10 10
0 6 5 10 10 10 6 0 10 -4 10 -10z m6200 -10 c0 -5 -5 -10 -11 -10 -5 0 -7 5
-4 10 3 6 8 10 11 10 2 0 4 -4 4 -10z m-6856 -16 c9 -3 16 -13 16 -21 0 -12 3
-13 14 -4 18 15 34 -5 17 -22 -16 -16 -14 -27 5 -27 11 0 14 -8 12 -32 -6 -60
-29 -45 -47 32 -4 16 -14 26 -29 28 -21 3 -30 30 -15 45 8 8 8 8 27 1z m612
-3 c-4 -5 -1 -11 5 -13 6 -2 2 -14 -10 -27 -12 -13 -22 -22 -22 -20 -5 14 -6
55 -2 62 2 4 11 7 19 7 8 0 13 -4 10 -9z m6434 -24 c0 -14 -26 -39 -60 -57
-16 -9 -25 -9 -33 -1 -8 8 -3 11 19 12 24 0 26 2 13 11 -15 10 -15 12 0 29 19
20 61 25 61 6z m-22 -175 c2 -7 -3 -12 -12 -12 -9 0 -16 7 -16 16 0 17 22 14
28 -4z m-7105 -12 c3 -12 14 -20 27 -20 11 0 18 -4 15 -10 -3 -5 -15 -10 -26
-10 -11 0 -22 -7 -25 -15 -4 -8 -17 -15 -31 -15 -22 0 -24 3 -18 33 6 29 28
57 46 57 4 0 9 -9 12 -20z m417 14 c0 -8 -43 -43 -54 -44 -5 0 1 11 14 25 22
24 40 32 40 19z m-353 -10 c-3 -3 -12 -4 -19 -1 -8 3 -5 6 6 6 11 1 17 -2 13
-5z m6993 -24 c8 -5 11 -10 5 -10 -5 0 -17 5 -25 10 -8 5 -10 10 -5 10 6 0 17
-5 25 -10z m-6685 -50 c-16 -16 -35 -30 -42 -30 -7 0 -13 -4 -13 -8 0 -4 -23
-21 -52 -36 -28 -16 -60 -39 -71 -52 -17 -22 -67 -34 -67 -17 0 12 33 43 46
43 7 0 14 4 16 8 4 12 104 79 128 87 11 4 20 10 20 15 0 7 17 13 54 19 6 0 -3
-12 -19 -29z m-730 -28 c-5 -14 -7 -14 -15 -2 -5 9 -4 20 3 28 14 17 22 0 12
-26z m135 19 c0 -12 -28 -22 -34 -12 -3 5 -3 11 1 15 9 9 33 7 33 -3z m950 6
c0 -2 -9 -12 -20 -22 -24 -21 -27 -14 -4 9 15 15 24 20 24 13z m240 -1 c0 -3
-4 -8 -10 -11 -5 -3 -10 -1 -10 4 0 6 5 11 10 11 6 0 10 -2 10 -4z m-160 -24
c0 -11 -30 -37 -52 -45 -24 -9 -22 3 5 30 22 22 47 30 47 15z m-850 -17 c0 -8
-7 -15 -15 -15 -16 0 -20 12 -8 23 11 12 23 8 23 -8z m2040 -41 c0 -14 -4 -23
-10 -19 -5 3 -10 15 -10 26 0 10 5 19 10 19 6 0 10 -12 10 -26z m5217 -11 c-3
-10 -5 -4 -5 12 0 17 2 24 5 18 2 -7 2 -21 0 -30z m-5047 23 c0 -3 -4 -8 -10
-11 -5 -3 -10 -1 -10 4 0 6 5 11 10 11 6 0 10 -2 10 -4z m-1562 -28 c-3 -7
-21 -24 -41 -37 -20 -13 -37 -30 -37 -38 0 -15 -26 -18 -35 -3 -3 6 -2 10 4
10 5 0 28 18 51 40 42 40 65 51 58 28z m6652 2 c0 -5 -7 -10 -16 -10 -8 0 -12
5 -9 10 3 6 10 10 16 10 5 0 9 -4 9 -10z m-7160 -38 c-1 -4 -12 -20 -26 -37
-15 -16 -24 -22 -21 -13 3 9 1 19 -6 22 -9 5 -9 7 1 12 6 3 12 14 12 25 0 17
3 18 20 9 11 -6 20 -14 20 -18z m556 -7 c-10 -8 -23 -12 -29 -8 -5 3 1 12 14
19 30 15 41 7 15 -11z m-236 -60 c-7 -8 -22 -15 -34 -15 -21 1 -21 1 -2 15 27
21 53 20 36 0z m195 -15 c3 -6 -4 -10 -17 -10 -18 0 -20 2 -8 10 19 12 18 12
25 0z m-45 -10 c0 -5 -10 -15 -22 -21 -23 -12 -23 -12 -4 10 21 23 26 26 26
11z m-35 -60 c-3 -5 -11 -10 -16 -10 -6 0 -7 5 -4 10 3 6 11 10 16 10 6 0 7
-4 4 -10z m55 2 c0 -11 -57 -62 -70 -62 -6 0 3 16 21 35 32 34 49 43 49 27z
m-595 -12 c-3 -5 -10 -10 -16 -10 -5 0 -9 5 -9 10 0 6 7 10 16 10 8 0 12 -4 9
-10z m255 -10 c-10 -18 -40 -40 -56 -40 -10 0 49 59 59 60 4 0 3 -9 -3 -20z
m-62 -2 c-2 -6 -10 -14 -16 -16 -7 -2 -10 2 -6 12 7 18 28 22 22 4z m122 2 c0
-5 -9 -10 -21 -10 -11 0 -17 5 -14 10 3 6 13 10 21 10 8 0 14 -4 14 -10z m120
-5 c-7 -8 -18 -15 -24 -15 -6 0 -2 7 8 15 25 19 32 19 16 0z m-280 -35 c0 -5
-4 -10 -10 -10 -5 0 -10 5 -10 10 0 6 5 10 10 10 6 0 10 -4 10 -10z m134 -5
c-25 -19 -40 -19 -24 0 7 8 20 15 28 15 13 0 12 -3 -4 -15z m206 -30 c-7 -8
-17 -15 -23 -15 -5 0 -2 9 8 20 21 23 35 19 15 -5z m-255 5 c6 -10 -65 -66
-104 -81 -49 -19 -42 -2 13 31 31 19 56 40 56 47 0 15 26 18 35 3z m162 -25
c-15 -14 -36 -25 -45 -25 -10 0 0 11 23 25 51 31 58 31 22 0z m25 -37 c-6 -6
-15 -8 -19 -4 -4 4 -1 11 7 16 19 12 27 3 12 -12z m-352 -43 c-14 -17 -30 -20
-30 -6 0 5 8 12 18 14 9 3 19 5 21 6 2 0 -2 -6 -9 -14z m7380 -15 c0 -5 -7
-10 -16 -10 -8 0 -12 5 -9 10 3 6 10 10 16 10 5 0 9 -4 9 -10z m-7035 -139
c-3 -6 -14 -11 -23 -11 -13 0 -13 2 4 14 21 15 30 14 19 -3z m-625 -81 c-6
-11 -15 -20 -20 -20 -6 0 -5 9 2 20 7 11 16 20 21 20 4 0 3 -9 -3 -20z m-59
-91 c-25 -21 -41 -24 -41 -9 0 11 53 41 60 33 3 -2 -6 -13 -19 -24z m7818
-105 c-11 -14 -14 -13 -22 1 -5 9 -6 19 -3 22 3 4 6 1 6 -5 0 -7 5 -12 10 -12
6 0 11 19 12 43 l1 42 4 -38 c3 -22 -1 -45 -8 -53z m-7249 -9 c-7 -8 -18 -15
-24 -15 -6 0 -2 7 8 15 25 19 32 19 16 0z m7310 -55 c0 -5 -5 -10 -11 -10 -5
0 -7 5 -4 10 3 6 8 10 11 10 2 0 4 -4 4 -10z m-7305 -50 c-3 -5 -14 -10 -23
-10 -15 0 -15 2 -2 10 20 13 33 13 25 0z m7725 -10 c0 -5 -4 -10 -10 -10 -5 0
-10 5 -10 10 0 6 5 10 10 10 6 0 10 -4 10 -10z m-290 -45 c0 -8 -7 -15 -15
-15 -8 0 -15 7 -15 15 0 8 7 15 15 15 8 0 15 -7 15 -15z m63 -4 c5 -22 -1 -33
-14 -25 -12 7 -12 44 0 44 5 0 11 -9 14 -19z m37 9 c0 -5 -2 -10 -4 -10 -3 0
-8 5 -11 10 -3 6 -1 10 4 10 6 0 11 -4 11 -10z m-7775 -30 c-3 -5 -12 -10 -18
-10 -7 0 -6 4 3 10 19 12 23 12 15 0z m7709 -16 c9 -22 8 -24 -9 -24 -8 0 -15
9 -15 20 0 24 15 27 24 4z m366 -4 c-8 -5 -23 -10 -32 -10 -10 0 -18 -4 -18
-10 0 -5 -5 -10 -10 -10 -6 0 -5 8 2 20 8 13 24 20 43 20 23 0 27 -3 15 -10z
m-315 -10 c3 -5 1 -10 -4 -10 -6 0 -11 5 -11 10 0 6 2 10 4 10 3 0 8 -4 11
-10z m-7835 -20 c0 -5 -8 -10 -17 -10 -15 0 -16 2 -3 10 19 12 20 12 20 0z
m8337 4 c-3 -3 -12 -4 -19 -1 -8 3 -5 6 6 6 11 1 17 -2 13 -5z m-8307 -18 c0
-3 -4 -8 -10 -11 -5 -3 -10 -1 -10 4 0 6 5 11 10 11 6 0 10 -2 10 -4z m290
-21 c-16 -20 -5 -19 26 1 13 9 27 14 30 11 3 -3 -18 -18 -48 -34 -72 -38 -77
-39 -48 -15 21 18 22 21 8 22 -38 0 -14 28 26 29 15 1 16 -2 6 -14z m-537 -82
c-7 -2 -19 -2 -25 0 -7 3 -2 5 12 5 14 0 19 -2 13 -5z m3893 -30 c-11 -11 -19
6 -11 24 8 17 8 17 12 0 3 -10 2 -21 -1 -24z m-4056 12 c0 -2 -10 -10 -22 -16
-21 -11 -22 -11 -9 4 13 16 31 23 31 12z m4180 -45 c0 -5 -4 -10 -10 -10 -5 0
-10 5 -10 10 0 6 5 10 10 10 6 0 10 -4 10 -10z m-108 -30 c-30 -29 -40 -25
-12 5 13 14 26 23 28 20 3 -3 -4 -14 -16 -25z m125 -32 c-3 -8 -6 -5 -6 6 -1
11 2 17 5 13 3 -3 4 -12 1 -19z m-751 -75 c8 -3 24 4 35 16 28 29 36 26 41
-14 3 -29 1 -35 -14 -35 -10 0 -18 -5 -18 -11 0 -7 10 -9 25 -5 22 6 25 3 25
-20 0 -22 4 -25 29 -22 16 1 36 -4 45 -11 15 -12 21 -10 49 15 17 16 29 25 25
20 -5 -5 -4 -14 2 -21 5 -6 10 -28 12 -49 2 -31 5 -36 20 -32 15 3 17 0 13
-15 -7 -21 10 -27 18 -6 3 7 6 5 6 -5 1 -10 8 -18 17 -18 10 0 14 6 11 14 -3
8 0 20 8 26 8 6 11 18 8 26 -3 9 2 14 15 14 19 0 25 -21 10 -36 -4 -3 -2 -17
3 -31 5 -14 7 -28 5 -31 -11 -10 25 -61 41 -60 10 1 35 -4 56 -11 31 -10 36
-16 26 -27 -8 -10 -6 -24 11 -59 20 -42 44 -53 38 -18 -2 9 3 18 11 21 10 3
13 -1 9 -15 -7 -27 24 -89 43 -85 11 1 20 -12 29 -39 13 -39 13 -42 -9 -60
-14 -12 -20 -23 -15 -31 15 -24 12 -36 -7 -31 -10 3 -19 12 -19 19 0 8 -4 14
-9 14 -5 0 -5 -15 -1 -36 8 -32 6 -35 -11 -31 -14 4 -19 0 -19 -15 0 -16 3
-18 13 -9 18 14 30 2 15 -16 -8 -10 -8 -17 0 -25 13 -13 35 -1 29 16 -4 9 3
11 19 8 29 -5 29 -7 4 -34 -11 -12 -20 -29 -20 -37 0 -10 11 -4 30 17 16 18
34 30 40 27 5 -3 10 0 10 7 0 8 6 6 18 -6 12 -14 14 -20 4 -23 -6 -3 -9 -9 -6
-14 3 -6 10 -6 17 -1 22 16 46 22 41 9 -2 -7 15 -24 39 -39 46 -29 67 -35 67
-18 0 6 7 10 15 10 14 0 20 -12 16 -34 -3 -13 62 2 70 16 5 7 11 10 14 6 4 -3
-4 -16 -17 -28 l-23 -22 45 6 c25 3 35 2 22 -2 -34 -10 -26 -27 11 -24 43 4
87 -13 87 -33 0 -15 -1 -15 -16 -1 -16 17 -44 22 -44 8 0 -9 42 -37 53 -34 4
1 7 -4 7 -12 0 -8 7 -17 16 -20 13 -5 14 -9 5 -20 -9 -11 -6 -15 14 -20 14 -4
25 -11 25 -17 0 -7 -9 -9 -21 -6 -37 10 -231 -34 -304 -68 -101 -48 -145 -90
-184 -175 -18 -39 -31 -77 -28 -84 6 -14 63 -15 103 -2 12 4 39 3 60 -2 25 -6
58 -4 92 3 28 7 52 10 52 8 0 -3 7 3 16 11 8 9 27 16 42 17 15 0 53 4 84 8 31
4 55 4 52 0 -4 -7 13 -7 59 0 5 0 5 6 2 12 -4 6 -13 8 -21 5 -7 -3 -16 -1 -19
4 -6 10 12 14 50 11 11 -1 31 10 43 24 23 27 28 45 12 45 -20 0 -10 36 10 37
15 1 20 -4 20 -23 0 -22 3 -24 23 -19 12 4 29 16 38 27 11 15 18 17 23 9 5 -7
-2 -20 -15 -32 -12 -10 -19 -22 -15 -26 4 -5 12 0 17 10 12 21 79 21 79 0 0
-8 6 -13 13 -12 25 3 38 -1 32 -11 -6 -10 18 -43 26 -36 2 2 19 6 37 9 24 5
32 3 32 -8 0 -8 -4 -15 -10 -15 -18 0 -21 -45 -5 -80 12 -27 15 -30 13 -11 -2
13 3 26 11 29 9 3 11 -1 7 -15 -4 -13 1 -26 14 -38 11 -10 20 -22 20 -27 0 -4
10 -18 22 -30 19 -19 21 -19 14 -2 -17 40 -19 57 -8 50 7 -4 12 -14 12 -22 0
-23 27 -65 76 -119 12 -13 25 -30 28 -37 5 -10 7 -10 12 0 9 19 24 14 24 -8 0
-11 6 -20 13 -20 19 0 74 -52 82 -77 4 -14 14 -23 26 -23 10 0 24 -9 31 -19 6
-10 18 -17 25 -14 8 3 15 -6 19 -26 4 -17 10 -31 15 -31 4 0 16 -16 25 -35 9
-20 24 -35 34 -35 9 0 22 -11 28 -25 11 -25 32 -34 32 -15 0 26 19 6 22 -22 2
-23 10 -36 28 -45 15 -7 26 -9 28 -3 7 20 22 9 22 -15 0 -16 6 -25 15 -25 9 0
15 -9 15 -22 0 -30 15 -54 24 -39 4 6 17 11 29 11 16 0 18 -3 9 -9 -10 -6 -9
-10 7 -14 13 -3 21 -13 21 -26 0 -15 6 -21 21 -21 15 0 19 -5 15 -18 -4 -10 1
-27 10 -38 15 -18 15 -18 9 10 -5 25 -4 28 9 17 23 -19 7 -91 -20 -91 -15 0
-51 -18 -69 -35 -15 -14 -18 -75 -4 -91 6 -8 8 -22 4 -31 -4 -10 -9 -54 -11
-98 -2 -44 -4 -80 -5 -80 0 0 -3 -63 -5 -140 -9 -357 -14 -486 -18 -493 -2 -4
-7 -51 -11 -104 -3 -53 -10 -111 -15 -129 -6 -19 -10 -57 -10 -86 0 -28 -5
-55 -11 -59 -6 -3 -8 -17 -5 -30 4 -14 -2 -45 -12 -72 -10 -26 -47 -135 -82
-242 -35 -106 -74 -214 -85 -240 -12 -25 -28 -62 -34 -82 -7 -21 -16 -40 -21
-43 -5 -3 -9 -67 -9 -141 -1 -117 1 -135 14 -130 18 7 20 -5 3 -22 -8 -8 -13
-43 -14 -87 -1 -61 1 -75 14 -75 13 0 12 -3 -3 -20 -14 -16 -16 -23 -7 -32 9
-9 9 -15 -1 -26 -10 -13 -8 -14 13 -8 22 6 23 5 9 -6 -16 -13 -23 -78 -8 -78
4 0 5 -9 2 -20 -3 -11 -1 -20 5 -20 6 0 8 -10 5 -22 -10 -46 -13 -51 -26 -40
-21 16 -268 81 -337 87 -87 8 -112 14 -105 24 6 11 -19 21 -56 21 -22 0 -29
-5 -29 -20 0 -13 -7 -20 -20 -20 -19 0 -40 -15 -115 -85 -18 -16 -50 -38 -72
-48 -21 -10 -56 -27 -78 -38 l-40 -20 -20 25 c-19 24 -63 31 -82 13 -13 -14
-53 -6 -62 12 -6 10 -22 21 -35 23 -14 3 -23 1 -20 -3 10 -16 -9 -9 -21 7 -9
14 -16 14 -34 5 -12 -7 -19 -16 -16 -22 4 -5 -1 -9 -10 -9 -9 0 -28 -8 -42
-17 -40 -26 -94 -46 -125 -45 -35 1 -90 41 -83 60 3 10 0 12 -10 9 -21 -9 -29
10 -9 21 15 9 15 10 -6 17 -15 5 -25 2 -31 -6 -7 -12 -9 -12 -9 0 0 8 -7 22
-16 32 -13 14 -21 16 -41 8 -29 -11 -57 5 -49 28 3 8 1 11 -4 8 -6 -3 -10 -15
-10 -26 0 -10 -4 -19 -10 -19 -5 0 -10 8 -10 18 0 26 -10 33 -25 18 -8 -7 -26
-11 -45 -8 -23 3 -28 7 -19 13 10 6 8 9 -9 9 -13 0 -21 -4 -17 -9 3 -5 -4 -12
-15 -16 -22 -7 -60 2 -60 14 0 11 -59 72 -90 93 -20 13 -21 17 -7 17 9 1 17 5
17 10 0 5 -9 7 -20 4 -26 -7 -26 10 1 46 16 21 19 33 11 47 -5 11 -8 25 -6 32
1 7 0 8 -3 2 -12 -25 -32 -7 -42 38 -5 26 -13 55 -16 64 -10 26 21 34 45 13
11 -10 26 -14 39 -10 16 5 20 1 23 -20 4 -37 20 -35 30 3 8 28 12 31 33 26 28
-7 30 -2 15 27 -10 17 -7 19 25 19 51 0 46 26 -7 38 l-43 10 41 1 c29 1 44 -4
48 -14 8 -22 29 -18 56 10 13 14 29 25 37 25 22 0 14 25 -17 50 -36 31 -38 44
-5 36 14 -4 25 -2 25 4 0 14 67 40 104 40 17 0 42 -7 56 -15 14 -8 33 -18 43
-21 9 -3 17 -11 17 -16 0 -20 29 21 37 53 8 28 4 44 -25 101 -35 70 -45 80
-56 52 -9 -24 -28 -5 -22 22 4 14 2 24 -4 24 -16 0 -12 22 7 35 17 12 16 16
-5 57 -12 23 -22 39 -22 34 0 -5 -7 -3 -15 4 -10 8 -12 16 -6 19 7 5 5 17 -4
35 -8 16 -15 36 -15 46 0 10 -7 23 -15 30 -16 13 -16 44 0 71 10 16 37 23 133
35 23 4 42 10 42 15 0 5 14 9 31 9 21 0 40 9 54 25 15 15 31 23 44 20 20 -4
74 25 111 58 51 45 79 57 139 57 46 0 63 4 67 15 4 8 14 15 23 15 10 0 35 9
57 19 30 15 50 17 86 12 26 -4 53 -4 60 0 6 4 35 10 63 14 70 8 133 25 145 39
6 9 5 19 -6 34 -19 28 -58 28 -121 1 -26 -11 -73 -21 -103 -22 -30 -1 -57 -4
-60 -7 -23 -23 -103 -53 -176 -65 -48 -9 -93 -19 -98 -24 -6 -4 -38 -14 -71
-21 -33 -7 -69 -19 -79 -26 -17 -11 -21 -11 -32 5 -10 13 -27 18 -77 18 -35 1
-87 9 -116 19 -37 12 -71 15 -116 12 -35 -3 -67 -2 -72 3 -12 12 -212 -16
-268 -36 -23 -8 -48 -15 -57 -15 -8 0 -21 -7 -28 -15 -7 -8 -27 -15 -44 -15
-18 0 -37 -5 -43 -11 -6 -6 -17 -8 -23 -4 -8 5 -8 11 -2 17 11 11 7 17 -29 57
-14 15 -14 21 -2 36 18 26 16 55 -4 55 -15 0 -11 13 5 16 67 11 91 34 36 34
-29 0 -30 5 -4 55 23 45 11 60 -20 25 -18 -20 -20 -21 -44 -5 -25 17 -26 16
-35 -8 -10 -25 -43 -43 -60 -33 -16 10 -41 -5 -41 -25 0 -12 -5 -16 -15 -13
-11 5 -13 2 -8 -12 4 -12 3 -15 -6 -10 -6 4 -9 16 -6 25 3 10 1 29 -4 42 l-9
24 -11 -29 c-9 -23 -9 -31 1 -38 8 -5 -2 -7 -25 -3 -22 3 -46 0 -58 -8 -17 -9
-23 -9 -26 1 -7 20 -32 14 -58 -14 -19 -20 -28 -24 -38 -16 -21 18 -57 -13
-57 -49 0 -16 5 -29 13 -29 6 -1 -10 -10 -37 -20 -27 -11 -58 -18 -69 -17 -11
1 -22 -5 -25 -13 -4 -13 -3 -13 10 -2 29 24 27 -3 -4 -36 -16 -19 -35 -31 -43
-28 -8 3 -17 -3 -20 -14 -6 -19 -7 -19 -33 -3 -15 10 -30 22 -34 28 -5 6 -8 5
-8 -2 0 -18 -27 -16 -34 2 -3 9 3 19 15 26 28 14 12 31 -45 48 -45 13 -54 27
-47 73 2 13 -46 58 -62 58 -9 0 -22 6 -29 14 -8 7 -23 16 -35 20 -12 4 -26 20
-31 36 -8 22 -15 27 -30 23 -12 -3 -27 4 -40 17 -15 17 -27 21 -46 16 -20 -5
-24 -3 -20 9 4 10 0 15 -10 15 -9 0 -16 -4 -16 -9 0 -5 -11 -11 -24 -13 -19
-4 -22 -1 -18 14 2 10 -1 18 -7 18 -6 0 -11 6 -11 13 0 16 -38 40 -50 32 -6
-4 -10 3 -10 14 0 12 -7 21 -16 21 -8 0 -27 14 -41 30 -24 29 -27 30 -44 15
-28 -26 -55 -11 -69 38 -12 44 -21 52 -105 87 -16 7 -37 16 -45 21 -8 5 -28
16 -45 25 -45 24 -75 55 -75 76 0 10 -13 32 -30 48 -18 17 -30 40 -30 55 0 14
-4 25 -8 25 -4 0 -13 14 -19 31 -9 22 -17 30 -28 26 -11 -5 -15 1 -15 26 0 41
-12 59 -33 51 -9 -3 -18 -2 -18 2 -1 5 -3 19 -4 30 -5 48 -16 72 -35 77 -14 4
-20 14 -20 34 0 15 -7 37 -15 47 -10 13 -15 43 -15 87 0 37 -5 80 -11 96 -6
15 -14 99 -17 187 -4 136 -2 160 11 167 10 6 13 17 9 31 -5 20 -3 21 10 10 20
-16 35 2 19 22 -9 11 -8 18 4 29 8 9 15 20 15 25 0 5 7 15 15 22 13 11 13 14
-2 25 -10 8 -15 17 -11 21 10 9 48 -25 48 -43 0 -19 10 -16 37 9 16 15 23 17
23 8 0 -11 3 -11 12 -2 22 22 48 14 48 -14 0 -19 7 -28 30 -37 19 -7 30 -18
30 -31 0 -10 8 -25 18 -33 12 -10 14 -16 5 -19 -17 -7 9 -34 33 -34 14 0 14
-3 4 -15 -21 -25 1 -38 49 -30 22 4 43 11 47 16 3 5 20 9 37 9 22 0 28 -3 18
-9 -17 -11 -6 -31 18 -31 9 0 26 -6 37 -14 19 -14 67 -12 89 4 6 4 22 10 37
14 15 3 33 12 40 19 13 13 70 31 148 48 84 18 250 40 260 34 5 -3 11 -1 14 4
6 10 82 26 104 22 15 -2 15 6 0 23 -12 13 -55 10 -75 -6 -7 -6 -14 -5 -18 2
-9 14 3 27 30 32 24 4 34 38 11 38 -24 0 -29 19 -12 45 9 13 16 33 16 45 0 11
3 20 8 21 4 0 19 2 35 4 34 5 78 -33 81 -70 0 -14 6 -25 12 -25 6 0 18 -8 25
-17 8 -9 9 -14 4 -11 -17 11 -39 -8 -31 -27 5 -15 9 -15 23 -4 14 12 16 12 11
-2 -6 -15 -2 -15 44 -2 28 9 59 24 69 34 10 10 33 19 50 19 17 0 40 5 52 12
28 15 40 18 101 21 48 2 48 3 79 59 28 52 29 58 14 73 -20 19 -21 31 -6 41 13
8 31 -19 39 -55 7 -32 31 -41 28 -10 -2 16 3 24 17 27 11 2 27 13 37 25 13 18
19 19 32 8 19 -16 32 -8 38 24 6 28 -38 188 -52 193 -6 2 -10 14 -10 28 0 17
-7 25 -24 30 -15 3 -26 14 -28 27 -2 12 -9 22 -16 22 -7 0 -16 5 -20 12 -4 7
-31 11 -70 10 -34 -1 -62 1 -62 4 0 25 14 69 22 69 5 0 6 -9 3 -20 -9 -27 3
-25 31 5 27 30 34 31 34 8 1 -17 1 -17 11 -1 5 10 16 15 24 12 8 -4 15 -1 15
5 0 6 -7 11 -15 11 -11 0 -15 10 -15 38 1 20 -2 53 -6 72 -7 34 -8 34 -15 10
-6 -23 -7 -23 -8 -3 -1 21 -4 22 -53 16 -44 -5 -51 -3 -40 8 21 22 15 40 -12
33 -21 -5 -24 -3 -19 15 4 14 1 21 -10 21 -8 0 -20 7 -27 15 -7 8 -21 15 -31
15 -11 0 -19 5 -19 10 0 12 -36 14 -43 3 -2 -5 -3 -3 -1 3 4 20 -17 34 -37 23
-12 -6 -33 -6 -61 2 -24 6 -51 10 -60 10 -10 0 -20 5 -23 10 -4 5 -11 6 -17 3
-17 -10 -91 -6 -98 6 -3 6 -17 9 -31 8 -13 -1 -39 2 -56 6 -22 5 -33 4 -33 -3
0 -20 -42 -12 -47 9 -3 11 -9 17 -14 14 -5 -3 -7 -10 -4 -15 4 -5 -6 -9 -21
-9 -20 0 -24 3 -16 13 8 10 5 13 -15 12 -21 0 -26 5 -29 32 -2 18 1 35 6 38 5
3 7 11 4 19 -3 7 7 18 21 24 14 6 25 16 25 21 0 5 6 9 13 8 34 -1 48 4 41 15
-4 7 -3 8 5 4 6 -4 18 -2 26 4 8 7 15 9 15 4 0 -4 7 1 15 12 8 10 15 14 15 7
0 -8 9 -8 38 0 47 14 45 12 33 36 -7 13 -8 22 -1 26 5 3 10 -1 10 -10 0 -9 6
-15 13 -12 6 2 11 14 10 26 -2 11 1 21 6 21 15 0 21 -31 10 -52 -6 -11 -8 -22
-5 -25 3 -3 8 2 12 11 3 9 15 16 25 16 11 0 16 5 13 14 -3 8 6 18 23 25 39 16
83 57 83 76 0 8 -4 15 -10 15 -5 0 -10 -5 -10 -12 0 -6 -2 -9 -5 -6 -10 9 18
73 42 95 12 12 23 27 23 33 0 5 3 9 8 8 15 -5 72 21 72 33 0 6 7 9 15 6 8 -4
17 -2 20 3 4 6 17 7 31 4 14 -4 24 -2 24 5 0 6 6 11 13 11 7 0 21 16 32 36 10
19 32 46 48 60 23 19 32 22 49 13 15 -8 17 -14 9 -22 -6 -6 -11 -15 -11 -20 0
-6 12 2 26 16 19 19 40 27 82 32 31 3 66 11 77 16 15 7 11 8 -18 4 -29 -5 -39
-2 -44 10 -5 13 -7 14 -14 3 -7 -10 -9 -9 -9 5 0 10 -4 15 -10 12 -6 -3 -10 4
-10 17 0 18 2 20 10 8 7 -12 12 -12 29 4 26 24 26 32 2 45 -16 9 -18 8 -14 -9
4 -13 0 -20 -9 -20 -19 0 -17 38 3 51 21 13 52 11 43 -3 -5 -8 -2 -9 10 -5 10
4 22 7 27 7 6 0 8 4 5 9 -3 5 1 11 9 15 20 7 19 24 -2 29 -12 3 -6 7 17 12
l35 9 -30 12 c-25 11 -27 13 -8 14 13 0 24 8 28 20 7 22 20 26 30 10 5 -8 11
-7 21 1 11 9 14 8 14 -5 0 -25 20 -9 22 17 1 12 3 3 5 -21 3 -26 10 -45 19
-49z m694 37 c0 -5 -4 -10 -10 -10 -5 0 -10 5 -10 10 0 6 5 10 10 10 6 0 10
-4 10 -10z m-900 -50 c0 -5 -5 -10 -11 -10 -5 0 -7 5 -4 10 3 6 8 10 11 10 2
0 4 -4 4 -10z m550 -90 c0 -5 -7 -10 -16 -10 -8 0 -12 5 -9 10 3 6 10 10 16
10 5 0 9 -4 9 -10z m50 0 c0 -5 -5 -10 -11 -10 -5 0 -7 5 -4 10 3 6 8 10 11
10 2 0 4 -4 4 -10z m-703 -45 c-20 -19 -27 -19 -27 0 0 8 7 15 15 15 8 0 15 6
16 13 0 9 2 9 6 0 2 -7 -2 -20 -10 -28z m-177 -155 c0 -5 -4 -10 -10 -10 -5 0
-10 5 -10 10 0 6 5 10 10 10 6 0 10 -4 10 -10z m1036 -67 c-11 -11 -19 6 -11
24 8 17 8 17 12 0 3 -10 2 -21 -1 -24z m-4042 -61 c11 -13 16 -34 15 -66 -2
-49 -17 -72 -26 -38 -2 11 -18 23 -36 28 -41 12 -43 25 -12 63 31 36 36 37 59
13z m-364 -112 c0 -5 -7 -7 -15 -4 -8 4 -12 10 -9 15 6 11 24 2 24 -11z m4510
-140 c0 -5 -4 -10 -10 -10 -5 0 -10 5 -10 10 0 6 5 10 10 10 6 0 10 -4 10 -10z
m-1800 -206 c0 -8 -6 -11 -15 -8 -8 4 -15 12 -15 20 0 8 6 11 15 8 8 -4 15
-12 15 -20z m-2015 -44 c-3 -5 -16 -10 -28 -9 -20 1 -20 2 3 9 14 4 26 8 28 9
2 1 0 -3 -3 -9z m4362 -96 c-9 -9 -28 6 -21 18 4 6 10 6 17 -1 6 -6 8 -13 4
-17z m118 -154 c3 -5 -1 -10 -9 -10 -9 0 -16 5 -16 10 0 6 4 10 9 10 6 0 13
-4 16 -10z m135 -40 c0 -5 -4 -10 -10 -10 -5 0 -10 5 -10 10 0 6 5 10 10 10 6
0 10 -4 10 -10z m-2160 -40 c16 0 30 5 30 11 0 12 42 1 52 -14 4 -6 13 -3 25
8 17 18 18 18 21 -3 2 -13 10 -22 20 -22 14 0 15 2 2 10 -8 5 -11 12 -8 16 12
12 59 -26 70 -57 7 -20 17 -29 31 -29 21 0 21 0 -1 -16 -18 -12 -20 -19 -12
-29 7 -8 8 -20 3 -27 -4 -7 -9 -24 -9 -38 -4 -69 -3 -65 -16 -48 -17 22 -70
28 -76 9 -3 -8 0 -11 6 -7 6 3 13 2 17 -4 4 -6 -4 -10 -18 -10 -54 0 -226 -53
-326 -101 -160 -76 -163 -78 -178 -72 -8 3 -27 -7 -44 -23 -22 -22 -32 -25
-41 -16 -9 9 -7 12 12 12 18 0 21 3 12 12 -8 8 -15 8 -25 -1 -8 -6 -23 -9 -33
-5 -15 5 -16 4 -5 -4 12 -9 10 -12 -11 -17 -15 -4 -36 -4 -48 0 -24 8 -127
-21 -152 -43 -17 -14 -43 -8 -33 8 2 4 -11 7 -30 7 -19 -1 -35 -5 -35 -9 0 -4
-5 -8 -11 -8 -5 0 -8 4 -5 9 5 7 -25 17 -71 23 -7 1 -11 4 -10 7 1 3 -1 7 -5
9 -5 1 -8 0 -8 -3 0 -3 0 -9 0 -15 0 -5 5 -10 11 -10 6 0 17 -7 25 -15 9 -8
11 -15 5 -15 -15 0 -14 -27 2 -33 9 -4 8 -8 -3 -16 -13 -10 -13 -11 0 -11 8 0
3 -7 -12 -14 -30 -16 -40 -13 -100 28 -18 12 -36 16 -53 12 -18 -5 -27 -2 -31
9 -9 22 -24 18 -24 -6 0 -18 -4 -20 -26 -15 -18 5 -24 3 -18 -5 5 -8 3 -9 -6
-4 -10 6 -7 14 14 32 15 12 26 29 24 36 -4 18 33 63 59 71 16 5 23 2 28 -14 3
-11 16 -25 28 -31 18 -9 20 -9 9 2 -6 7 -12 23 -12 36 0 17 -6 23 -22 23 -18
0 -20 2 -9 9 9 6 22 6 33 0 14 -8 18 -6 18 10 0 10 7 21 15 25 8 3 15 9 14 13
-4 23 4 34 36 47 19 8 35 20 35 25 0 6 6 8 14 5 23 -9 95 15 106 36 14 26 13
30 -7 31 -13 0 -11 3 7 12 14 6 29 17 33 24 4 7 19 13 32 13 14 0 33 8 44 19
10 10 37 29 60 41 22 13 41 27 41 32 0 4 16 8 36 8 19 0 33 4 30 9 -6 10 38
23 89 27 17 1 32 3 35 4 3 1 37 1 75 1 75 -1 103 8 89 30 -6 12 -5 12 8 1 13
-10 17 -10 21 1 3 9 16 12 35 9 16 -2 33 1 37 8 5 8 13 7 31 -4 13 -9 37 -16
54 -16z m10 20 c0 -5 -7 -7 -15 -4 -8 4 -15 8 -15 10 0 2 7 4 15 4 8 0 15 -4
15 -10z m1576 -27 c-6 -6 -36 9 -36 18 0 5 9 4 20 -3 10 -7 18 -14 16 -15z
m-1366 7 c0 -5 -5 -10 -11 -10 -5 0 -7 5 -4 10 3 6 8 10 11 10 2 0 4 -4 4 -10z
m1351 -17 c29 -17 38 -33 20 -33 -6 0 -13 5 -16 10 -3 6 -17 10 -30 10 -25 0
-39 12 -28 24 10 10 23 7 54 -11z m369 -7 c0 -3 -4 -8 -10 -11 -5 -3 -10 -1
-10 4 0 6 5 11 10 11 6 0 10 -2 10 -4z m500 -195 c0 -6 -4 -13 -10 -16 -5 -3
-10 1 -10 9 0 9 5 16 10 16 6 0 10 -4 10 -9z m-2215 -51 c3 -5 1 -10 -4 -10
-6 0 -11 5 -11 10 0 6 2 10 4 10 3 0 8 -4 11 -10z m65 0 c14 -4 19 -8 12 -9
-7 -1 -11 -5 -8 -10 3 -5 15 -7 25 -4 17 4 39 -12 29 -22 -9 -9 -76 16 -93 35
-20 22 -11 25 35 10z m203 -100 c3 -13 -1 -24 -14 -30 -17 -9 -19 -7 -19 20 0
34 25 42 33 10z m2092 -13 c11 -8 14 -16 8 -20 -6 -4 -18 2 -28 13 -21 23 -8
27 20 7z m-2597 -63 c35 -10 26 -41 -10 -35 -5 0 -8 -6 -8 -14 0 -8 -7 -15
-15 -15 -15 0 -20 26 -9 54 7 18 9 18 42 10z m2682 -34 c0 -5 -5 -10 -11 -10
-5 0 -7 5 -4 10 3 6 8 10 11 10 2 0 4 -4 4 -10z m33 -15 c-7 -21 -13 -19 -13
6 0 11 4 18 10 14 5 -3 7 -12 3 -20z m-3996 -17 c-3 -8 -6 -5 -6 6 -1 11 2 17
5 13 3 -3 4 -12 1 -19z m981 -65 c13 10 15 9 10 -10 -5 -17 -2 -23 10 -24 11
0 13 -2 4 -6 -26 -10 -62 7 -62 29 0 17 3 19 12 10 9 -9 15 -9 26 1z m-1032
-40 c-11 -11 -19 6 -11 24 8 17 8 17 12 0 3 -10 2 -21 -1 -24z m4264 -113 c0
-5 -5 -10 -11 -10 -5 0 -7 5 -4 10 3 6 8 10 11 10 2 0 4 -4 4 -10z m-5169
-150 c5 0 9 -4 9 -9 0 -5 -18 -9 -40 -9 -22 0 -40 4 -40 10 0 5 7 8 15 4 8 -3
15 -1 15 5 0 6 7 8 16 5 9 -3 20 -6 25 -6z m89 -45 c42 -21 37 -29 -12 -21
-48 8 -60 14 -53 27 9 13 32 11 65 -6z m96 -60 c14 -13 13 -15 -10 -15 -16 0
-26 6 -26 15 0 8 5 15 11 15 6 0 17 -7 25 -15z m751 -427 c-3 -8 -6 -5 -6 6
-1 11 2 17 5 13 3 -3 4 -12 1 -19z m698 -688 c-3 -5 -10 -10 -16 -10 -5 0 -9
5 -9 10 0 6 7 10 16 10 8 0 12 -4 9 -10z m1230 -120 c3 -5 -1 -10 -9 -10 -9 0
-16 5 -16 10 0 6 4 10 9 10 6 0 13 -4 16 -10z m-1020 -20 c3 -5 1 -10 -4 -10
-6 0 -11 5 -11 10 0 6 2 10 4 10 3 0 8 -4 11 -10z m822 -592 c18 2 35 -3 43
-13 7 -8 20 -15 30 -15 10 0 20 -7 24 -15 3 -8 15 -15 26 -15 11 0 23 -8 26
-17 12 -37 27 -62 41 -67 8 -3 11 -1 8 4 -3 6 1 10 9 10 9 0 16 -6 16 -13 0
-8 9 -22 20 -32 11 -10 20 -25 20 -33 0 -8 6 -12 14 -9 10 4 13 1 10 -7 -3 -8
4 -16 18 -20 l23 -7 -22 -11 c-13 -6 -23 -17 -23 -25 0 -7 -6 -13 -13 -13 -7
0 -17 -10 -22 -22 -6 -15 -19 -23 -33 -23 -13 0 -30 -8 -37 -18 -18 -25 -50
-21 -65 8 -8 16 -22 25 -37 25 -13 0 -23 6 -23 13 0 8 -4 7 -10 -3 -8 -12 -10
-9 -10 13 0 24 -3 27 -24 21 -18 -4 -34 5 -75 45 -28 27 -51 56 -51 65 0 8 -9
17 -19 21 -12 4 -18 12 -14 21 3 8 -1 14 -11 14 -12 0 -16 9 -16 34 0 34 5 39
80 70 8 3 -2 3 -23 0 -36 -5 -38 -4 -32 17 6 18 4 21 -9 16 -9 -4 -16 -2 -16
3 0 6 11 10 25 10 14 0 24 -5 23 -11 -2 -6 3 -14 10 -16 6 -3 12 3 12 12 0 12
6 16 19 12 10 -2 25 -1 32 4 10 6 16 2 20 -14 4 -18 11 -21 36 -19z m766 -203
c-3 -9 -8 -14 -10 -11 -3 3 -2 9 2 15 9 16 15 13 8 -4z m-73 -107 c0 -18 -2
-20 -9 -8 -6 8 -7 18 -5 22 9 14 14 9 14 -14z m-349 -191 c-1 -4 -1 -14 -1
-22 0 -8 -4 -15 -9 -15 -12 0 -23 29 -15 41 6 11 26 8 25 -4z m465 -504 c-10
-10 -19 5 -10 18 6 11 8 11 12 0 2 -7 1 -15 -2 -18z m-35 -6 c-1 -12 -15 -9
-19 4 -3 6 1 10 8 8 6 -3 11 -8 11 -12z m2579 -73 c0 -7 13 -18 28 -25 28 -12
59 -79 47 -100 -12 -19 -31 -8 -43 25 -15 42 -67 65 -102 46 -22 -12 -40 -6
-40 14 0 7 -7 13 -15 13 -8 0 -15 -4 -15 -8 0 -4 -8 -8 -17 -8 -49 1 -126 -11
-137 -21 -8 -5 -20 -8 -29 -4 -8 3 -18 1 -22 -5 -8 -14 -125 -14 -125 -1 0 18
48 34 62 22 13 -10 72 11 148 51 34 19 260 20 260 1z m-545 -46 c54 0 73 -11
38 -22 -27 -8 -116 17 -121 34 -5 13 -3 13 11 1 10 -8 39 -13 72 -13z m655
-119 c0 -11 -4 -19 -9 -19 -16 0 -33 30 -27 46 5 13 9 14 21 4 8 -7 15 -21 15
-31z m-220 17 c0 -11 -19 -15 -25 -6 -3 5 1 10 9 10 9 0 16 -2 16 -4z m246
-83 c-4 -9 -1 -22 5 -30 7 -7 9 -16 5 -20 -9 -10 -41 38 -43 65 -2 19 1 21 18
11 13 -6 18 -16 15 -26z m-66 -19 c0 -8 -5 -12 -10 -9 -6 4 -8 11 -5 16 9 14
15 11 15 -7z m-236 -11 c6 -7 21 -9 95 -12 28 -1 125 -94 119 -113 -7 -21 -28
-15 -41 12 -7 14 -23 26 -37 28 -14 2 -32 10 -40 17 -8 7 -27 16 -42 20 -15 4
-32 13 -39 21 -7 8 -20 12 -30 9 -27 -9 -48 6 -23 16 25 10 29 10 38 2z m336
-58 c0 -8 -2 -15 -4 -15 -2 0 -6 7 -10 15 -3 8 -1 15 4 15 6 0 10 -7 10 -15z
m-80 -85 c0 -5 -4 -10 -10 -10 -5 0 -10 5 -10 10 0 6 5 10 10 10 6 0 10 -4 10
-10z m77 -26 c-3 -3 -12 -4 -19 -1 -8 3 -5 6 6 6 11 1 17 -2 13 -5z m-69 -33
c3 -8 -1 -12 -9 -9 -7 2 -15 10 -17 17 -3 8 1 12 9 9 7 -2 15 -10 17 -17z
m-312 1 c20 -13 44 -71 44 -107 0 -48 -12 -44 -34 13 -37 97 -39 113 -10 94z
m408 -27 c22 -33 20 -42 -4 -20 -10 9 -26 15 -34 12 -20 -8 -28 3 -15 20 17
20 35 16 53 -12z m-214 -55 c0 -5 -4 -10 -10 -10 -5 0 -10 5 -10 10 0 6 5 10
10 10 6 0 10 -4 10 -10z m158 -36 c12 -4 22 -13 22 -20 0 -8 5 -14 11 -14 17
0 38 -32 39 -59 0 -17 -4 -22 -16 -17 -9 3 -24 6 -35 6 -11 0 -16 5 -13 13 3
9 -3 13 -17 13 -14 -1 -23 6 -25 19 -2 11 -8 21 -13 23 -6 2 -11 12 -11 23 0
20 17 24 58 13z m-970 -26 c-3 -7 -11 -13 -18 -13 -7 0 -15 6 -17 13 -3 7 4
12 17 12 13 0 20 -5 18 -12z m1662 -298 c0 -5 -4 -10 -10 -10 -5 0 -10 5 -10
10 0 6 5 10 10 10 6 0 10 -4 10 -10z m-335 -440 c3 -5 -1 -10 -10 -10 -9 0
-13 5 -10 10 3 6 8 10 10 10 2 0 7 -4 10 -10z m1495 -60 c0 -5 -7 -10 -16 -10
-8 0 -12 5 -9 10 3 6 10 10 16 10 5 0 9 -4 9 -10z m-70 -19 c0 -6 -4 -13 -10
-16 -5 -3 -10 1 -10 9 0 9 5 16 10 16 6 0 10 -4 10 -9z m-1433 -127 c3 -8 1
-20 -4 -25 -7 -7 -12 -2 -15 15 -6 28 9 36 19 10z"/>
<path d="M1548 8913 c7 -3 16 -2 19 1 4 3 -2 6 -13 5 -11 0 -14 -3 -6 -6z"/>
<path d="M1467 8817 c-13 -13 -17 -27 -13 -43 5 -17 2 -24 -9 -24 -8 0 -15 -4
-15 -10 0 -5 5 -10 10 -10 16 0 11 -27 -6 -34 -22 -9 -24 -8 -24 10 0 13 -3
14 -15 4 -12 -10 -12 -14 -2 -25 8 -7 22 -15 33 -17 13 -2 19 -12 19 -31 -1
-15 3 -27 7 -27 4 0 8 6 8 14 0 8 9 18 21 21 11 4 18 12 16 18 -2 6 7 23 19
36 21 23 22 26 6 38 -15 11 -15 14 -2 23 12 8 9 10 -13 10 -24 0 -26 2 -16 18
7 12 8 24 3 33 -8 13 -12 12 -27 -4z"/>
<path d="M1320 8723 c1 -19 19 -35 35 -31 18 3 18 4 1 21 -18 18 -36 23 -36
10z"/>
<path d="M1350 8670 c0 -5 5 -10 10 -10 6 0 10 5 10 10 0 6 -4 10 -10 10 -5 0
-10 -4 -10 -10z"/>
<path d="M1394 8639 c0 -22 12 -25 19 -5 3 8 0 16 -6 19 -7 3 -13 -3 -13 -14z"/>
<path d="M1368 8603 c7 -3 16 -2 19 1 4 3 -2 6 -13 5 -11 0 -14 -3 -6 -6z"/>
<path d="M1490 8548 c-12 -22 -12 -22 6 -6 10 10 15 20 12 24 -4 3 -12 -5 -18
-18z"/>
<path d="M1202 8475 c-27 -29 -29 -35 -14 -35 26 0 55 24 59 49 4 30 -7 26
-45 -14z"/>
<path d="M1075 8450 c-10 -11 -14 -20 -8 -20 5 0 18 9 28 20 10 11 14 20 8 20
-5 0 -18 -9 -28 -20z"/>
<path d="M1330 8330 c0 -5 5 -10 10 -10 6 0 10 5 10 10 0 6 -4 10 -10 10 -5 0
-10 -4 -10 -10z"/>
<path d="M3955 6960 c3 -5 10 -10 16 -10 5 0 9 5 9 10 0 6 -7 10 -16 10 -8 0
-12 -4 -9 -10z"/>
<path d="M4040 6840 c0 -5 9 -10 21 -10 11 0 17 5 14 10 -3 6 -13 10 -21 10
-8 0 -14 -4 -14 -10z"/>
<path d="M3627 6658 c-19 -20 -17 -35 2 -23 14 8 34 45 24 44 -4 0 -16 -10
-26 -21z"/>
<path d="M4570 6200 c0 -5 5 -10 10 -10 6 0 10 5 10 10 0 6 -4 10 -10 10 -5 0
-10 -4 -10 -10z"/>
<path d="M4710 6151 c0 -4 11 -6 25 -3 14 2 25 6 25 8 0 2 -11 4 -25 4 -14 0
-25 -4 -25 -9z"/>
<path d="M3155 5111 c-7 -12 31 -25 45 -16 6 4 8 11 5 16 -8 12 -42 12 -50 0z"/>
<path d="M3190 5060 c-8 -5 -11 -12 -7 -16 4 -4 13 -2 19 4 15 15 7 24 -12 12z"/>
<path d="M4894 4320 c-26 -10 -109 -88 -102 -95 6 -6 41 -11 158 -20 l85 -6
24 32 c28 38 22 53 -29 81 -36 19 -100 23 -136 8z"/>
<path d="M4172 4210 c-12 -12 -22 -24 -22 -29 0 -5 -23 -11 -51 -14 -35 -4
-65 -17 -96 -39 -61 -44 -70 -59 -55 -93 11 -24 17 -27 47 -22 28 5 37 2 45
-14 13 -24 -16 -77 -33 -60 -15 15 -27 14 -27 -3 0 -27 -86 -14 -118 17 -16
15 -31 24 -35 20 -4 -3 -13 1 -20 11 -8 11 -19 15 -31 10 -15 -6 -17 -14 -12
-43 3 -20 6 -44 6 -54 0 -10 8 -21 17 -24 9 -4 25 -14 35 -22 18 -16 157 -52
170 -45 4 3 23 5 43 6 21 1 39 7 42 15 3 7 13 13 23 13 11 0 22 5 25 10 3 6
15 10 25 10 10 0 39 20 63 45 25 25 53 45 62 45 8 0 18 7 21 15 7 18 40 20 50
4 12 -20 105 -3 129 24 24 25 18 39 -23 51 -13 5 -22 16 -22 28 0 14 -5 18
-15 14 -10 -4 -15 1 -15 14 0 21 -27 40 -47 33 -7 -3 -13 2 -13 10 0 19 -43
54 -89 73 -44 18 -53 18 -79 -6z m21 -188 c-2 -7 2 -12 8 -12 8 0 8 -5 -1 -15
-17 -20 -38 -18 -80 6 -19 11 -27 18 -18 15 9 -3 22 1 28 9 14 16 66 14 63 -3z"/>
<path d="M4023 3561 c-3 -12 -10 -18 -17 -14 -6 4 -5 -1 3 -10 15 -18 36 -24
26 -7 -4 6 -2 17 5 25 8 10 8 15 0 20 -7 4 -14 -2 -17 -14z"/>
<path d="M3976 3481 c-4 -7 -5 -15 -2 -18 9 -9 19 4 14 18 -4 11 -6 11 -12 0z"/>
<path d="M5626 3411 c-3 -5 -16 -7 -27 -4 -19 5 -20 4 -10 -15 14 -27 34 -39
39 -24 2 7 10 12 17 12 8 0 11 7 8 20 -6 21 -18 26 -27 11z"/>
<path d="M3200 3252 c1 -9 26 -42 33 -42 11 0 -6 39 -19 44 -8 3 -14 2 -14 -2z"/>
<path d="M4128 2253 c6 -2 18 -2 25 0 6 3 1 5 -13 5 -14 0 -19 -2 -12 -5z"/>
<path d="M5611 2094 c0 -11 3 -14 6 -6 3 7 2 16 -1 19 -3 4 -6 -2 -5 -13z"/>
<path d="M4178 2074 c14 -10 30 -13 45 -8 l22 8 -25 7 c-14 4 -34 7 -45 8 -18
1 -18 0 3 -15z"/>
<path d="M5586 2064 c-4 -9 -4 -19 -1 -22 2 -3 7 3 11 12 4 9 4 19 1 22 -2 3
-7 -3 -11 -12z"/>
<path d="M4380 1965 c0 -8 5 -15 10 -15 6 0 10 7 10 15 0 8 -4 15 -10 15 -5 0
-10 -7 -10 -15z"/>
<path d="M2314 5174 c3 -9 6 -18 6 -20 0 -2 8 -4 18 -4 11 0 18 7 18 20 0 14
-7 20 -24 20 -18 0 -23 -4 -18 -16z"/>
<path d="M7680 9344 c0 -14 6 -32 14 -40 8 -8 26 -14 40 -14 24 0 26 4 26 40
l0 40 -40 0 c-36 0 -40 -2 -40 -26z"/>
<path d="M522 9273 c2 -10 14 -20 27 -21 19 -3 22 0 17 13 -3 9 -6 19 -6 21 0
2 -9 4 -21 4 -14 0 -19 -5 -17 -17z"/>
<path d="M7800 9215 c0 -14 4 -25 9 -25 12 0 23 29 15 41 -10 18 -24 9 -24
-16z"/>
<path d="M7868 9133 c7 -3 16 -2 19 1 4 3 -2 6 -13 5 -11 0 -14 -3 -6 -6z"/>
<path d="M7842 9105 c0 -16 2 -22 5 -12 2 9 2 23 0 30 -3 6 -5 -1 -5 -18z"/>
<path d="M841 8977 c9 -7 18 -19 22 -27 4 -10 6 -9 6 6 1 12 -6 25 -15 28 -25
9 -30 6 -13 -7z"/>
<path d="M560 8956 c0 -9 5 -16 10 -16 6 0 10 4 10 9 0 6 -4 13 -10 16 -5 3
-10 -1 -10 -9z"/>
<path d="M8020 8881 c0 -17 18 -21 24 -6 3 9 0 15 -9 15 -8 0 -15 -4 -15 -9z"/>
<path d="M8111 8814 c0 -11 3 -14 6 -6 3 7 2 16 -1 19 -3 4 -6 -2 -5 -13z"/>
<path d="M8151 8724 c0 -11 3 -14 6 -6 3 7 2 16 -1 19 -3 4 -6 -2 -5 -13z"/>
<path d="M8166 8703 c-3 -16 -2 -53 3 -83 l9 -55 1 83 c1 84 -3 103 -13 55z"/>
<path d="M850 8675 c0 -16 5 -37 10 -45 7 -12 10 -8 10 15 0 17 -5 37 -10 45
-7 12 -10 8 -10 -15z"/>
<path d="M680 8650 c0 -5 7 -10 15 -10 8 0 15 5 15 10 0 6 -7 10 -15 10 -8 0
-15 -4 -15 -10z"/>
<path d="M763 8630 c-4 -14 -12 -20 -27 -18 -13 2 -22 -3 -24 -14 -3 -15 2
-17 30 -11 47 9 73 45 42 57 -11 4 -18 -1 -21 -14z"/>
<path d="M287 8606 c-4 -10 -5 -21 -2 -24 9 -9 17 6 13 25 -3 17 -4 17 -11 -1z"/>
<path d="M8120 8585 c-10 -13 -9 -15 8 -15 15 0 20 5 16 15 -4 8 -7 15 -9 15
-1 0 -8 -7 -15 -15z"/>
<path d="M8172 8547 c-9 -10 -8 -18 2 -33 13 -17 15 -18 21 -2 4 9 3 24 -2 33
-8 14 -11 14 -21 2z"/>
<path d="M250 8526 c0 -9 5 -16 10 -16 6 0 10 4 10 9 0 6 -4 13 -10 16 -5 3
-10 -1 -10 -9z"/>
<path d="M8230 8510 c0 -11 4 -20 9 -20 5 0 7 9 4 20 -3 11 -7 20 -9 20 -2 0
-4 -9 -4 -20z"/>
<path d="M296 8457 c-5 -15 -6 -31 -2 -34 11 -11 18 5 14 34 l-4 28 -8 -28z"/>
<path d="M250 8391 c-17 -32 -12 -61 10 -61 25 0 40 29 29 58 -10 27 -25 28
-39 3z"/>
<path d="M192 8290 c2 -60 -1 -71 -18 -68 -22 4 -30 -20 -9 -28 9 -4 30 -21
48 -38 l32 -31 3 24 c2 13 -1 33 -7 45 -6 12 -20 46 -31 76 -18 51 -20 52 -18
20z"/>
<path d="M614 8309 c-4 -7 0 -17 8 -23 8 -6 17 -18 20 -26 5 -12 7 -11 13 4
13 31 -24 72 -41 45z"/>
<path d="M37 8274 c-7 -8 3 -34 13 -34 9 0 8 26 -1 35 -3 3 -8 2 -12 -1z"/>
<path d="M8310 8255 c0 -19 5 -26 17 -23 25 5 27 25 4 38 -19 10 -21 8 -21
-15z"/>
<path d="M705 8251 c-6 -21 13 -61 30 -61 26 1 32 15 18 48 -15 36 -38 42 -48
13z"/>
<path d="M8375 8220 c-9 -15 4 -30 25 -30 27 0 34 17 11 29 -24 13 -28 14 -36
1z"/>
<path d="M790 8200 c0 -5 7 -10 16 -10 8 0 12 5 9 10 -3 6 -10 10 -16 10 -5 0
-9 -4 -9 -10z"/>
<path d="M710 8144 c0 -8 5 -12 10 -9 6 3 10 10 10 16 0 5 -4 9 -10 9 -5 0
-10 -7 -10 -16z"/>
<path d="M8430 8150 c0 -5 5 -10 10 -10 6 0 10 5 10 10 0 6 -4 10 -10 10 -5 0
-10 -4 -10 -10z"/>
<path d="M90 8065 c6 -8 9 -19 5 -25 -3 -5 1 -10 10 -10 12 0 15 5 11 16 -3 9
-6 20 -6 25 0 5 -7 9 -16 9 -13 0 -14 -3 -4 -15z"/>
<path d="M136 8044 c-7 -18 8 -34 32 -34 12 0 16 -12 13 -37 -3 -26 18 -20 54
14 l39 37 -30 12 c-16 7 -46 15 -65 19 -29 5 -38 3 -43 -11z m104 -30 c0 -2
-7 -4 -15 -4 -8 0 -15 4 -15 10 0 5 7 7 15 4 8 -4 15 -8 15 -10z"/>
<path d="M20 8036 c0 -9 5 -16 10 -16 6 0 10 4 10 9 0 6 -4 13 -10 16 -5 3
-10 -1 -10 -9z"/>
<path d="M410 7979 c0 -5 5 -7 10 -4 6 3 10 8 10 11 0 2 -4 4 -10 4 -5 0 -10
-5 -10 -11z"/>
<path d="M470 7939 c0 -7 -10 -9 -25 -6 -25 4 -26 4 -19 -42 6 -42 17 -60 37
-61 4 0 7 18 7 39 0 22 5 43 10 46 6 3 10 13 10 21 0 8 -4 14 -10 14 -5 0 -10
-5 -10 -11z"/>
<path d="M305 7930 c-3 -5 -1 -10 4 -10 6 0 11 5 11 10 0 6 -2 10 -4 10 -3 0
-8 -4 -11 -10z"/>
<path d="M250 7875 c0 -8 -4 -15 -9 -15 -5 0 -14 -13 -19 -29 -8 -23 -18 -29
-51 -35 -38 -6 -41 -8 -30 -27 6 -12 16 -18 26 -15 8 3 20 6 28 6 7 0 15 9 18
20 3 14 14 20 31 20 27 0 35 -15 14 -23 -7 -3 -3 -6 9 -6 12 -1 24 2 26 7 6
11 -19 53 -26 45 -13 -12 -7 13 8 33 15 22 11 34 -12 34 -7 0 -13 -7 -13 -15z"/>
<path d="M118 7709 c-9 -6 -8 -10 5 -15 19 -7 23 -44 6 -61 -7 -7 -9 -19 -5
-29 6 -16 8 -15 22 4 8 12 21 22 28 22 7 0 27 16 44 35 22 23 37 32 48 28 11
-4 15 -2 12 7 -5 15 -138 22 -160 9z"/>
<path d="M8625 7687 c-4 -15 -11 -27 -17 -27 -14 0 -5 -43 11 -48 10 -3 13 2
9 22 -4 17 0 29 10 35 11 6 12 13 4 27 -10 17 -11 16 -17 -9z"/>
<path d="M482 7678 c-27 -14 -24 -33 6 -34 25 -1 47 20 37 36 -8 12 -13 12
-43 -2z"/>
<path d="M385 7635 c-3 -11 -18 -44 -32 -73 -14 -29 -22 -56 -18 -60 10 -10
35 28 35 55 0 18 6 23 25 23 29 0 34 25 11 56 -14 19 -15 19 -21 -1z"/>
<path d="M226 7625 c-3 -9 -13 -15 -22 -13 -9 2 -23 -8 -32 -21 -16 -23 -16
-24 5 -13 16 9 22 9 25 1 2 -7 13 -9 26 -5 16 5 22 15 22 37 0 31 -14 39 -24
14z"/>
<path d="M8731 7604 c-11 -13 -11 -18 -1 -24 11 -7 11 -12 2 -23 -15 -17 -6
-27 25 -27 18 0 23 5 23 25 0 18 -5 25 -20 25 -11 0 -20 5 -20 10 0 6 9 10 20
10 11 0 20 5 20 10 0 15 -33 11 -49 -6z"/>
<path d="M8880 7581 c0 -12 37 -24 50 -16 20 12 10 25 -20 25 -16 0 -30 -4
-30 -9z"/>
<path d="M8800 7540 c0 -5 18 -10 40 -10 22 0 40 5 40 10 0 6 -18 10 -40 10
-22 0 -40 -4 -40 -10z"/>
<path d="M8908 7533 c7 -3 16 -2 19 1 4 3 -2 6 -13 5 -11 0 -14 -3 -6 -6z"/>
<path d="M432 7510 c-16 -26 -15 -40 3 -40 10 0 15 10 15 30 0 35 -1 36 -18
10z"/>
<path d="M8971 7521 c-19 -12 -5 -31 23 -31 29 0 39 10 25 27 -13 15 -28 16
-48 4z"/>
<path d="M262 7490 c-10 -17 -10 -20 3 -20 8 0 15 9 15 20 0 11 -1 20 -3 20
-1 0 -8 -9 -15 -20z"/>
<path d="M491 7476 c-19 -23 5 -28 30 -6 24 19 24 19 3 20 -12 0 -27 -6 -33
-14z"/>
<path d="M307 7452 c-19 -20 -22 -32 -9 -32 5 0 14 11 20 25 14 30 11 31 -11
7z"/>
<path d="M9045 7420 c-7 -12 2 -30 16 -30 5 0 9 9 9 20 0 21 -15 27 -25 10z"/>
<path d="M485 7390 c-3 -5 1 -10 9 -10 8 0 18 5 21 10 3 6 -1 10 -9 10 -8 0
-18 -4 -21 -10z"/>
<path d="M0 7359 c0 -5 5 -7 10 -4 5 3 10 8 10 11 0 2 -4 4 -10 4 -5 0 -10 -5
-10 -11z"/>
<path d="M420 7331 c-9 -18 -8 -20 9 -13 22 8 28 25 12 30 -5 2 -15 -6 -21
-17z"/>
<path d="M475 7330 c3 -5 10 -10 16 -10 5 0 9 5 9 10 0 6 -7 10 -16 10 -8 0
-12 -4 -9 -10z"/>
<path d="M80 7130 c0 -5 5 -10 10 -10 6 0 10 5 10 10 0 6 -4 10 -10 10 -5 0
-10 -4 -10 -10z"/>
<path d="M440 7004 c0 -17 22 -14 28 4 2 7 -3 12 -12 12 -9 0 -16 -7 -16 -16z"/>
<path d="M190 6991 c0 -21 29 -31 71 -25 l43 7 -45 13 c-52 16 -69 17 -69 5z"/>
<path d="M210 6940 c0 -5 5 -10 10 -10 6 0 10 5 10 10 0 6 -4 10 -10 10 -5 0
-10 -4 -10 -10z"/>
<path d="M480 6900 c0 -5 7 -7 15 -4 8 4 15 8 15 10 0 2 -7 4 -15 4 -8 0 -15
-4 -15 -10z"/>
<path d="M31 6836 c-22 -22 -31 -42 -31 -64 0 -31 9 -40 24 -25 4 4 15 8 24 8
9 0 18 9 20 19 2 11 14 28 26 38 15 14 17 21 8 25 -7 2 -18 11 -26 18 -11 12
-18 9 -45 -19z"/>
<path d="M118 6793 c7 -3 16 -2 19 1 4 3 -2 6 -13 5 -11 0 -14 -3 -6 -6z"/>
<path d="M313 6743 c-18 -6 -16 -23 1 -23 17 0 30 16 19 23 -5 2 -14 2 -20 0z"/>
<path d="M387 6714 c-12 -12 -8 -23 13 -34 23 -12 26 -2 7 24 -7 9 -16 14 -20
10z"/>
<path d="M0 6635 c0 -8 5 -15 10 -15 6 0 10 7 10 15 0 8 -4 15 -10 15 -5 0
-10 -7 -10 -15z"/>
<path d="M420 6350 c0 -19 1 -19 20 -3 11 10 20 19 20 20 0 2 -9 3 -20 3 -13
0 -20 -7 -20 -20z"/>
<path d="M285 6280 c-21 -23 -28 -50 -14 -50 6 0 23 7 39 15 18 9 40 13 55 9
27 -7 34 7 13 24 -7 5 -27 13 -44 16 -23 5 -34 2 -49 -14z"/>
<path d="M152 6239 c2 -6 8 -10 13 -10 5 0 11 4 13 10 2 6 -4 11 -13 11 -9 0
-15 -5 -13 -11z"/>
<path d="M10 6205 c0 -8 18 -24 40 -35 28 -14 40 -17 40 -8 0 19 -12 33 -37
47 -29 15 -43 14 -43 -4z"/>
<path d="M100 6130 c0 -5 5 -10 10 -10 6 0 10 5 10 10 0 6 -4 10 -10 10 -5 0
-10 -4 -10 -10z"/>
<path d="M291 6036 c-8 -9 -11 -19 -7 -23 9 -9 29 13 24 27 -2 8 -8 7 -17 -4z"/>
<path d="M477 6044 c-10 -10 6 -51 23 -62 15 -9 22 -8 35 4 8 9 13 19 10 24
-7 12 -63 39 -68 34z"/>
<path d="M425 6019 c-10 -15 -2 -19 23 -12 12 3 19 9 16 14 -7 12 -31 11 -39
-2z"/>
<path d="M30 5953 c0 -4 9 -19 20 -33 19 -25 37 -23 27 4 -6 16 -47 41 -47 29z"/>
<path d="M480 5875 c-10 -13 -9 -15 9 -15 13 0 29 -7 38 -15 17 -17 34 -16 41
3 2 7 -5 15 -15 18 -10 3 -26 10 -35 15 -23 12 -23 12 -38 -6z"/>
<path d="M330 5840 c0 -5 5 -10 10 -10 6 0 10 5 10 10 0 6 -4 10 -10 10 -5 0
-10 -4 -10 -10z"/>
<path d="M1 5774 c0 -11 3 -14 6 -6 3 7 2 16 -1 19 -3 4 -6 -2 -5 -13z"/>
<path d="M119 5752 c-25 -3 -26 -6 -26 -60 -1 -82 24 -107 52 -52 16 30 21
106 8 112 -5 2 -20 2 -34 0z"/>
<path d="M28 5704 c-5 -4 -8 -16 -8 -28 0 -14 3 -17 11 -9 6 6 9 19 7 28 -1 9
-6 13 -10 9z"/>
<path d="M225 5700 c-3 -5 -1 -10 4 -10 6 0 11 5 11 10 0 6 -2 10 -4 10 -3 0
-8 -4 -11 -10z"/>
<path d="M352 5658 c-14 -14 -16 -28 -3 -28 9 0 24 30 18 36 -2 2 -9 -2 -15
-8z"/>
<path d="M170 5615 c-10 -12 -7 -15 17 -21 15 -4 34 -11 41 -17 19 -15 27 0
14 28 -13 28 -52 34 -72 10z"/>
<path d="M280 5541 c0 -5 9 -7 20 -4 11 3 20 7 20 9 0 2 -9 4 -20 4 -11 0 -20
-4 -20 -9z"/>
<path d="M127 5534 c-12 -12 6 -34 28 -34 34 0 39 15 9 29 -29 13 -29 13 -37
5z"/>
<path d="M580 5494 c0 -18 -30 -75 -45 -86 -5 -4 -17 -5 -27 -2 -9 2 -19 0
-23 -6 -3 -5 1 -10 9 -10 9 0 16 -4 16 -10 0 -5 9 -10 20 -10 11 0 20 -6 20
-14 0 -9 10 -12 32 -10 42 5 45 10 23 34 -16 17 -17 25 -7 40 7 11 12 29 12
40 0 11 5 20 10 20 6 0 10 7 10 15 0 9 -9 15 -25 15 -16 0 -25 -6 -25 -16z"/>
<path d="M398 5465 c-17 -37 0 -48 56 -40 25 4 46 11 46 16 0 7 -75 49 -87 49
-2 0 -9 -11 -15 -25z"/>
<path d="M330 5460 c0 -5 5 -10 10 -10 6 0 10 5 10 10 0 6 -4 10 -10 10 -5 0
-10 -4 -10 -10z"/>
<path d="M398 5393 c-37 -6 -35 -15 7 -37 40 -22 41 -21 50 17 8 29 6 29 -57
20z"/>
<path d="M835 5390 c-8 -13 15 -13 35 0 12 8 11 10 -7 10 -12 0 -25 -4 -28
-10z"/>
<path d="M915 5290 c-3 -5 -2 -10 4 -10 5 0 13 5 16 10 3 6 2 10 -4 10 -5 0
-13 -4 -16 -10z"/>
<path d="M456 5266 c4 -16 1 -25 -11 -30 -25 -9 -9 -24 20 -18 18 3 24 9 21
19 -3 8 -6 23 -6 34 0 10 -7 19 -15 19 -11 0 -14 -7 -9 -24z"/>
<path d="M656 5262 c-2 -4 4 -13 15 -20 22 -14 25 -7 5 14 -8 8 -17 11 -20 6z"/>
<path d="M613 5195 c4 -25 37 -118 61 -176 6 -13 -2 -17 -39 -22 -26 -4 -57
-15 -69 -25 l-23 -17 33 -17 c31 -16 33 -16 55 8 32 35 51 30 73 -19 53 -117
53 -118 65 -104 8 10 6 24 -9 55 -11 23 -20 46 -20 52 0 19 71 11 88 -10 10
-11 32 -23 50 -26 29 -6 32 -4 32 19 0 18 10 34 30 49 35 25 38 43 10 58 -14
7 -20 7 -20 0 0 -20 -2 -25 -22 -52 -25 -36 -46 -35 -59 2 -10 28 -39 43 -39
20 0 -8 -80 -36 -84 -28 0 2 -7 13 -13 25 -10 17 -10 28 -1 47 6 14 15 23 20
20 10 -7 47 35 48 55 0 9 -6 11 -17 6 -10 -4 -28 -10 -41 -12 -12 -3 -25 -9
-28 -14 -12 -19 -22 -6 -39 51 -20 67 -52 109 -42 55z"/>
<path d="M715 5190 c-4 -6 -3 -16 3 -22 6 -6 12 -6 17 2 4 6 3 16 -3 22 -6 6
-12 6 -17 -2z"/>
<path d="M355 5130 c3 -5 8 -10 11 -10 2 0 4 5 4 10 0 6 -5 10 -11 10 -5 0 -7
-4 -4 -10z"/>
<path d="M535 5030 c-3 -6 -21 -17 -38 -24 -28 -12 -29 -15 -14 -21 13 -6 26
0 45 18 14 15 23 29 20 32 -3 4 -9 1 -13 -5z"/>
<path d="M30 4965 c0 -8 5 -15 10 -15 6 0 10 7 10 15 0 8 -4 15 -10 15 -5 0
-10 -7 -10 -15z"/>
<path d="M515 4910 c-9 -15 2 -27 30 -32 19 -4 25 -1 25 12 0 25 -42 41 -55
20z"/>
<path d="M630 4895 c-7 -8 -18 -15 -25 -15 -7 0 -18 -7 -25 -15 -11 -13 -9
-15 11 -13 18 2 25 -2 27 -20 2 -12 12 -28 23 -35 24 -15 24 -29 -1 -52 -27
-24 -25 -35 6 -35 21 0 24 4 19 20 -4 13 -1 22 9 26 22 9 20 40 -5 65 -21 21
-33 69 -18 69 5 0 9 5 9 10 0 15 -16 12 -30 -5z m10 -25 c0 -5 -4 -10 -10 -10
-5 0 -10 5 -10 10 0 6 5 10 10 10 6 0 10 -4 10 -10z"/>
<path d="M344 4865 c-11 -12 -27 -24 -35 -27 -17 -6 -11 -13 16 -22 16 -5 24
1 35 27 7 17 15 35 18 40 8 15 -14 4 -34 -18z"/>
<path d="M399 4795 c-20 -11 -25 -20 -22 -39 7 -35 57 -41 92 -10 l26 24 -35
-3 c-31 -2 -35 0 -32 21 4 26 5 25 -29 7z"/>
<path d="M346 4676 c3 -8 15 -16 26 -19 20 -6 20 -8 6 -29 -24 -36 -42 -33
-86 14 -23 23 -43 40 -45 38 -2 -3 -7 -24 -10 -47 -5 -40 -3 -43 18 -43 13 0
25 6 28 13 2 6 6 0 9 -15 4 -23 2 -28 -13 -28 -29 0 -22 -18 14 -36 17 -9 43
-27 56 -41 13 -13 26 -21 29 -18 3 3 0 11 -6 17 -7 7 -12 22 -12 35 0 12 -8
27 -17 32 -16 9 -15 10 7 11 14 0 39 9 56 19 l32 19 22 -23 23 -24 -32 -18
c-36 -21 -40 -33 -11 -33 11 0 20 -4 20 -8 0 -9 77 -62 90 -62 4 0 10 9 13 20
5 19 8 19 64 -15 32 -19 59 -31 61 -26 2 5 -1 24 -7 43 -7 25 -9 27 -10 11 -1
-28 -31 -31 -31 -4 0 11 -13 25 -34 35 -35 17 -53 34 -71 70 -6 11 -20 22 -32
24 -11 2 -28 11 -37 21 -15 16 -15 19 -1 31 23 19 18 31 -10 24 -16 -4 -34 0
-50 10 -31 20 -66 21 -59 2z"/>
<path d="M191 4602 c-15 -27 -14 -32 4 -32 20 0 31 28 17 42 -7 7 -14 4 -21
-10z"/>
<path d="M728 4613 c6 -2 18 -2 25 0 6 3 1 5 -13 5 -14 0 -19 -2 -12 -5z"/>
<path d="M574 4579 c-3 -6 -1 -16 5 -22 8 -8 11 -5 11 11 0 24 -5 28 -16 11z"/>
<path d="M150 4520 c0 -5 4 -10 9 -10 6 0 13 5 16 10 3 6 -1 10 -9 10 -9 0
-16 -4 -16 -10z"/>
<path d="M835 4420 c-3 -5 -1 -10 4 -10 6 0 11 5 11 10 0 6 -2 10 -4 10 -3 0
-8 -4 -11 -10z"/>
<path d="M1380 4311 c0 -6 5 -13 10 -16 6 -3 10 1 10 9 0 9 -4 16 -10 16 -5 0
-10 -4 -10 -9z"/>
<path d="M8450 1120 c0 -5 7 -7 15 -4 8 4 15 8 15 10 0 2 -7 4 -15 4 -8 0 -15
-4 -15 -10z"/>
<path d="M8370 1091 c5 -11 19 -23 30 -26 19 -6 24 -20 21 -57 -2 -16 9 -23
32 -19 4 0 7 -4 7 -9 0 -6 11 -8 25 -4 19 5 25 2 25 -10 0 -17 20 -21 36 -7
13 12 76 1 71 -13 -2 -6 -13 -12 -25 -14 -25 -4 -30 -22 -6 -22 9 0 14 -6 11
-13 -2 -6 2 -18 10 -26 13 -12 14 -11 8 8 -5 17 -2 21 14 21 11 0 25 -9 31
-21 7 -12 20 -19 33 -18 39 3 109 -13 114 -27 3 -8 11 -14 19 -14 8 0 14 -5
14 -11 0 -6 7 -8 15 -5 8 3 22 9 32 13 11 4 14 3 9 -5 -5 -8 -2 -10 8 -6 11 4
16 0 16 -10 0 -9 8 -16 20 -16 25 0 26 16 3 29 -10 5 -15 12 -11 16 10 10 46
-17 41 -32 -3 -7 0 -13 6 -13 6 0 11 3 11 8 1 18 18 32 34 26 15 -6 15 -8 -4
-21 -29 -21 -25 -51 10 -71 16 -9 30 -20 30 -24 0 -5 7 -8 15 -8 8 0 15 -4 15
-10 0 -5 7 -10 16 -10 14 0 14 3 4 15 -7 8 -18 15 -25 15 -17 0 -13 29 5 40 9
6 19 2 28 -11 9 -13 20 -18 32 -14 10 3 22 0 26 -7 14 -22 11 -48 -4 -48 -13
0 -13 -3 1 -18 11 -12 27 -17 45 -14 22 3 32 -2 46 -23 10 -16 23 -24 32 -21
9 3 16 -3 20 -19 7 -27 34 -35 34 -9 0 8 5 12 10 9 6 -4 10 10 10 34 0 34 -3
41 -20 41 -11 0 -20 -4 -20 -10 0 -5 -7 -10 -15 -10 -36 0 6 69 43 70 6 0 12
5 12 11 0 8 -12 10 -36 6 -40 -7 -44 14 -4 23 32 8 38 30 8 30 -34 0 -39 9
-21 36 17 26 3 33 -17 9 -19 -22 -38 -18 -72 15 -20 21 -25 30 -14 30 8 0 20
-9 26 -20 6 -11 15 -20 19 -20 12 0 8 33 -4 42 -6 4 0 14 13 24 17 12 21 19
13 27 -15 15 -14 27 4 27 8 0 15 7 15 15 0 8 -7 15 -15 15 -9 0 -18 -7 -21
-15 -4 -8 -12 -15 -20 -15 -17 0 -18 17 -1 23 6 2 8 8 4 13 -4 5 -11 3 -15 -4
-6 -8 -30 -10 -77 -7 -39 3 -74 0 -81 -6 -9 -7 -14 -5 -19 10 -8 26 1 41 25
41 25 0 50 10 50 21 0 5 -7 9 -15 9 -9 0 -18 7 -21 15 -7 16 -34 21 -34 6 0
-5 -13 -11 -30 -13 -20 -3 -30 0 -30 8 0 8 -6 11 -15 8 -8 -3 -20 -2 -27 2 -7
4 -26 9 -43 10 -41 2 -40 1 -20 24 10 11 13 20 7 20 -7 0 -12 -4 -12 -9 0 -4
-21 -7 -47 -5 -27 2 -52 4 -58 4 -21 1 -111 -10 -134 -15 -13 -4 -27 -1 -31 5
-4 7 -15 6 -36 -5 -36 -19 -50 -19 -57 -1 -7 18 -35 15 -48 -5 -7 -11 -9 -11
-9 4 0 14 -5 17 -19 12 -11 -3 -22 -1 -26 5 -3 5 -20 10 -36 10 -26 0 -29 -2
-19 -19z m650 -105 c0 -2 -7 -7 -16 -10 -8 -3 -12 -2 -9 4 6 10 25 14 25 6z
m-340 -50 c0 -2 -9 -6 -20 -9 -11 -3 -20 -1 -20 4 0 5 9 9 20 9 11 0 20 -2 20
-4z m80 -26 c0 -5 -4 -10 -10 -10 -5 0 -10 5 -10 10 0 6 5 10 10 10 6 0 10 -4
10 -10z m428 -2 c17 -17 15 -33 -3 -18 -11 9 -22 9 -45 2 -35 -13 -41 0 -7 16
30 14 41 14 55 0z m62 -8 c0 -5 -5 -10 -11 -10 -5 0 -7 5 -4 10 3 6 8 10 11
10 2 0 4 -4 4 -10z m-495 -20 c3 -5 -1 -10 -10 -10 -9 0 -13 5 -10 10 3 6 8
10 10 10 2 0 7 -4 10 -10z m325 -50 c0 -5 -5 -10 -11 -10 -5 0 -7 5 -4 10 3 6
8 10 11 10 2 0 4 -4 4 -10z m-7 -54 c4 -10 1 -13 -8 -9 -8 3 -12 9 -9 14 7 12
11 11 17 -5z m147 -48 c0 -13 -23 -5 -28 10 -2 7 2 10 12 6 9 -3 16 -11 16
-16z m30 -38 c0 -5 -4 -10 -9 -10 -6 0 -13 5 -16 10 -3 6 1 10 9 10 9 0 16 -4
16 -10z m50 -21 c-7 -11 -9 -32 -5 -47 5 -21 4 -24 -8 -13 -23 18 -27 60 -8
71 26 15 33 12 21 -11z m-50 -19 c0 -5 -4 -10 -10 -10 -5 0 -10 5 -10 10 0 6
5 10 10 10 6 0 10 -4 10 -10z m110 -40 c0 -5 -2 -10 -4 -10 -3 0 -8 5 -11 10
-3 6 -1 10 4 10 6 0 11 -4 11 -10z"/>
<path d="M8382 1023 c-12 -2 -20 -8 -17 -13 6 -10 45 -1 45 11 0 5 -1 8 -2 8
-2 -1 -13 -4 -26 -6z"/>
<path d="M8540 920 c0 -5 5 -10 10 -10 6 0 10 5 10 10 0 6 -4 10 -10 10 -5 0
-10 -4 -10 -10z"/>
<path d="M7546 912 c-8 -13 -1 -43 13 -51 7 -5 13 -12 13 -17 0 -5 3 -15 6
-22 2 -7 0 -18 -5 -23 -7 -7 -3 -19 13 -36 12 -13 20 -31 17 -39 -3 -8 0 -14
6 -14 6 0 20 -9 31 -20 11 -11 32 -20 46 -20 20 0 25 -4 20 -16 -9 -23 3 -37
20 -23 11 9 14 8 14 -3 0 -8 -4 -18 -9 -23 -13 -14 5 -55 24 -55 8 0 15 6 15
13 1 6 8 0 16 -15 8 -16 19 -28 24 -28 14 0 12 11 -6 31 -8 9 -16 31 -16 48
-1 17 -9 38 -19 47 -10 9 -16 21 -13 26 7 11 -15 40 -26 33 -7 -4 -21 30 -25
60 -3 22 -29 65 -39 65 -6 0 -17 9 -24 20 -7 12 -18 17 -29 14 -15 -5 -15 -3
2 11 20 17 20 17 -4 12 -17 -4 -24 -1 -28 14 -5 19 -28 26 -37 11z"/>
<path d="M9285 860 c-3 -5 -2 -10 4 -10 5 0 13 5 16 10 3 6 2 10 -4 10 -5 0
-13 -4 -16 -10z"/>
<path d="M8415 850 c3 -5 8 -10 11 -10 2 0 4 5 4 10 0 6 -5 10 -11 10 -5 0 -7
-4 -4 -10z"/>
<path d="M8775 820 c3 -5 10 -10 16 -10 5 0 9 5 9 10 0 6 -7 10 -16 10 -8 0
-12 -4 -9 -10z"/>
<path d="M9285 820 c3 -5 8 -10 11 -10 2 0 4 5 4 10 0 6 -5 10 -11 10 -5 0 -7
-4 -4 -10z"/>
<path d="M8450 810 c0 -5 6 -10 14 -10 8 0 18 5 21 10 3 6 -3 10 -14 10 -12 0
-21 -4 -21 -10z"/>
<path d="M9330 785 c0 -8 2 -15 4 -15 2 0 6 7 10 15 3 8 1 15 -4 15 -6 0 -10
-7 -10 -15z"/>
<path d="M7725 750 c-3 -5 -1 -10 4 -10 6 0 11 5 11 10 0 6 -2 10 -4 10 -3 0
-8 -4 -11 -10z"/>
<path d="M9140 690 c-12 -8 -10 -10 8 -10 13 0 20 4 17 10 -7 12 -6 12 -25 0z"/>
<path d="M9233 597 c4 -10 7 -24 7 -30 0 -8 3 -8 11 0 9 9 7 16 -7 30 -17 17
-18 17 -11 0z"/>
<path d="M8927 553 c-4 -3 -7 -11 -7 -17 0 -6 5 -5 12 2 6 6 9 14 7 17 -3 3
-9 2 -12 -2z"/>
<path d="M9357 520 c-3 -11 -1 -20 4 -20 5 0 9 9 9 20 0 11 -2 20 -4 20 -2 0
-6 -9 -9 -20z"/>
<path d="M7791 482 c-5 -9 -8 -29 -8 -43 2 -21 6 -24 25 -21 18 4 21 1 16 -13
-6 -15 -4 -16 14 -6 27 14 28 28 5 34 -17 4 -17 5 0 6 9 0 17 5 17 9 0 5 -12
8 -27 7 -16 -1 -20 0 -11 2 9 2 22 11 29 19 10 12 9 13 -6 8 -13 -5 -16 -4
-11 4 5 8 0 12 -13 12 -11 0 -25 -8 -30 -18z"/>
<path d="M9052 465 c-10 -21 -9 -25 6 -25 11 0 17 9 18 25 2 32 -10 32 -24 0z"/>
<path d="M9283 463 c9 -2 25 -2 35 0 9 3 1 5 -18 5 -19 0 -27 -2 -17 -5z"/>
<path d="M7826 374 c-18 -18 -20 -33 -6 -54 6 -10 10 -11 10 -2 0 6 12 12 28
13 26 0 26 1 -8 13 l-35 13 28 7 c15 3 27 11 27 16 0 15 -27 12 -44 -6z"/>
<path d="M7848 303 c7 -3 16 -2 19 1 4 3 -2 6 -13 5 -11 0 -14 -3 -6 -6z"/>
<path d="M7857 283 c-15 -4 -16 -7 -5 -20 10 -13 10 -17 1 -20 -21 -8 -15 -20
22 -42 19 -11 35 -28 35 -37 0 -14 -3 -14 -15 -4 -21 18 -28 8 -11 -15 12 -16
16 -17 30 -6 14 11 16 11 16 -3 0 -16 11 -21 23 -10 3 3 -2 15 -12 26 -22 22
-17 58 8 59 10 0 7 4 -9 12 -14 6 -27 14 -30 17 -3 4 -13 10 -24 13 -11 4 -16
13 -12 22 3 8 4 14 3 14 -1 -1 -10 -3 -20 -6z m33 -47 c0 -3 -4 -8 -10 -11 -5
-3 -10 -1 -10 4 0 6 5 11 10 11 6 0 10 -2 10 -4z"/>
<path d="M8112 158 c6 -18 25 -20 31 -3 5 10 0 15 -14 15 -12 0 -19 -5 -17
-12z"/>
<path d="M8138 102 c-10 -2 -18 -8 -18 -14 0 -5 7 -8 15 -4 9 3 15 0 15 -9 0
-8 5 -15 10 -15 11 0 12 8 2 30 -4 9 -15 14 -24 12z"/>
<path d="M7920 90 c0 -6 7 -10 15 -10 8 0 15 2 15 4 0 2 -7 6 -15 10 -8 3 -15
1 -15 -4z"/>
<path d="M7978 73 c7 -3 16 -2 19 1 4 3 -2 6 -13 5 -11 0 -14 -3 -6 -6z"/>
<path d="M7900 58 c0 -11 12 -10 30 2 12 7 10 9 -8 7 -12 0 -22 -5 -22 -9z"/>
<path d="M8173 45 l-21 -25 23 0 c13 0 25 -6 28 -12 2 -7 8 -10 12 -6 4 4 3
14 -4 21 -6 8 -9 22 -5 31 9 24 -8 19 -33 -9z"/>
<path d="M7918 33 c6 -2 18 -2 25 0 6 3 1 5 -13 5 -14 0 -19 -2 -12 -5z"/>
<path d="M9350 21 c0 -6 5 -13 10 -16 6 -3 10 1 10 9 0 9 -4 16 -10 16 -5 0
-10 -4 -10 -9z"/>
<path d="M7915 10 c3 -5 18 -10 33 -10 21 0 24 2 12 10 -20 13 -53 13 -45 0z"/>
</g>
</svg>
